<?xml version="1.0" encoding="utf-8"?>
<!-- Generator: Avocode 2.6.0 - http://avocode.com -->
<svg height="40" width="115" xmlns:xlink="http://www.w3.org/1999/xlink" xmlns="http://www.w3.org/2000/svg" viewBox="0 0 115 40">
    <path fill="#797979" fill-rule="evenodd" d="M 62.76 8.65 C 62.7 8.99 62.72 15.3 62.77 15.5 C 63.04 15.51 63.31 15.52 63.58 15.5 L 63.58 8.67 C 63.52 8.66 63.48 8.65 63.44 8.65 C 63.22 8.65 62.99 8.65 62.76 8.65 L 62.76 8.65 Z M 96.75 14.87 C 96.57 14.88 96.41 14.9 96.26 14.9 C 95.93 14.9 95.74 14.75 95.67 14.43 C 95.64 14.27 95.62 14.11 95.62 13.94 C 95.62 13.2 95.62 12.45 95.62 11.7 C 95.62 11.64 95.63 11.57 95.64 11.5 C 96.05 11.48 96.45 11.5 96.84 11.48 L 96.84 10.83 L 95.62 10.83 L 95.62 9.5 C 95.32 9.57 95.06 9.64 94.78 9.72 L 94.78 10.84 L 94.05 10.84 C 94.07 11.07 94.02 11.28 94.09 11.5 L 94.78 11.5 L 94.78 11.8 C 94.78 12.53 94.77 13.26 94.78 13.99 C 94.78 14.22 94.8 14.44 94.84 14.66 C 94.89 15 95.05 15.28 95.36 15.45 C 95.83 15.69 96.31 15.64 96.79 15.5 C 96.79 15.36 96.79 15.25 96.79 15.14 C 96.78 15.05 96.77 14.97 96.75 14.87 L 96.75 14.87 Z M 87.98 15.5 L 87.98 15.2 C 87.98 14.42 87.98 13.65 87.98 12.88 C 87.98 12.73 87.99 12.57 88.02 12.42 C 88.11 12.02 88.34 11.72 88.72 11.55 C 89.39 11.25 90.05 11.55 90.22 12.25 C 90.28 12.48 90.29 12.73 90.3 12.97 C 90.31 13.71 90.3 14.46 90.3 15.21 L 90.3 15.49 L 91.13 15.49 C 91.14 15.44 91.15 15.4 91.15 15.35 C 91.15 14.4 91.16 13.45 91.14 12.49 C 91.13 12.23 91.07 11.97 90.98 11.72 C 90.8 11.24 90.44 10.92 89.94 10.79 C 89.19 10.62 88.55 10.81 88.05 11.4 C 88.01 11.44 87.97 11.48 87.9 11.56 C 87.88 11.3 87.86 11.08 87.85 10.85 L 87.13 10.85 L 87.13 15.5 L 87.98 15.5 Z M 72.57 15.49 L 73.3 15.49 C 73.29 14.77 73.28 14.07 73.27 13.37 C 73.27 13.08 73.29 12.78 73.27 12.49 C 73.25 12.25 73.22 11.99 73.14 11.76 C 72.98 11.27 72.64 10.95 72.13 10.82 C 71.48 10.65 70.84 10.73 70.23 10.99 C 70.13 11.03 70.04 11.09 69.93 11.15 C 70 11.34 70.06 11.51 70.12 11.69 C 70.22 11.65 70.29 11.61 70.36 11.58 C 70.76 11.4 71.17 11.33 71.6 11.39 C 72.17 11.46 72.5 11.93 72.39 12.51 C 72.31 12.51 72.23 12.51 72.14 12.52 C 71.82 12.56 71.49 12.58 71.17 12.64 C 70.72 12.73 70.31 12.9 69.98 13.23 C 69.34 13.89 69.44 15.22 70.53 15.53 C 71.19 15.72 71.78 15.58 72.29 15.13 C 72.35 15.07 72.41 15.02 72.5 14.93 C 72.53 15.14 72.55 15.31 72.57 15.49 L 72.57 15.49 Z M 61.61 15.49 C 61.61 15.41 61.62 15.36 61.62 15.31 C 61.62 14.43 61.62 13.54 61.62 12.66 C 61.61 12.48 61.6 12.3 61.56 12.12 C 61.44 11.53 61.14 11.07 60.55 10.84 C 59.84 10.57 58.99 10.8 58.51 11.39 C 58.47 11.44 58.43 11.49 58.37 11.56 C 58.34 11.3 58.32 11.07 58.3 10.83 C 58.07 10.83 57.87 10.83 57.67 10.83 C 57.64 10.83 57.61 10.84 57.58 10.85 L 57.58 15.49 L 58.45 15.49 C 58.45 15.31 58.45 15.14 58.45 14.98 C 58.45 14.21 58.44 13.44 58.45 12.66 C 58.46 12.18 58.69 11.81 59.12 11.58 C 59.8 11.22 60.53 11.54 60.69 12.28 C 60.73 12.49 60.75 12.71 60.75 12.92 C 60.76 13.69 60.75 14.45 60.75 15.22 C 60.75 15.31 60.76 15.4 60.76 15.49 L 61.61 15.49 Z M 106.48 13.31 C 106.64 12.57 106.38 11.81 106.08 11.42 C 105.83 11.09 105.51 10.88 105.1 10.79 C 104.11 10.57 103.07 10.97 102.62 12.03 C 102.34 12.66 102.3 13.32 102.47 13.99 C 102.69 14.82 103.22 15.36 104.07 15.54 C 104.78 15.69 105.48 15.61 106.16 15.36 C 106.19 15.35 106.22 15.32 106.26 15.29 C 106.21 15.09 106.16 14.91 106.12 14.74 C 105.8 14.81 105.52 14.88 105.23 14.92 C 104.84 14.98 104.45 14.96 104.08 14.8 C 103.51 14.56 103.13 13.9 103.24 13.31 L 106.48 13.31 Z M 64.45 13.18 C 64.46 13.18 64.47 13.18 64.48 13.18 C 64.48 13.28 64.48 13.37 64.48 13.47 C 64.54 14.61 65.32 15.46 66.46 15.59 C 67.5 15.72 68.7 15.19 69.01 13.86 C 69.1 13.48 69.11 13.11 69.07 12.73 C 68.93 11.63 68.2 10.87 67.09 10.75 C 65.96 10.62 64.9 11.2 64.58 12.4 C 64.51 12.65 64.49 12.92 64.45 13.18 L 64.45 13.18 Z M 49.91 13.15 C 49.9 13.15 49.89 13.15 49.88 13.15 C 49.88 13.06 49.89 12.96 49.88 12.87 C 49.81 11.71 49.05 10.88 47.89 10.75 C 46.85 10.63 45.74 11.11 45.38 12.39 C 45.28 12.71 45.25 13.04 45.27 13.38 C 45.33 14.6 46.08 15.44 47.25 15.59 C 48.24 15.72 49.46 15.24 49.79 13.91 C 49.86 13.67 49.88 13.41 49.91 13.15 L 49.91 13.15 Z M 86.29 13.14 L 86.26 13.14 C 86.26 13.04 86.26 12.95 86.26 12.86 C 86.17 11.7 85.42 10.89 84.28 10.75 C 83.25 10.62 82.1 11.1 81.75 12.4 C 81.67 12.71 81.64 13.04 81.65 13.37 C 81.69 14.59 82.46 15.45 83.64 15.59 C 84.64 15.71 85.83 15.22 86.16 13.93 C 86.23 13.67 86.25 13.4 86.29 13.14 L 86.29 13.14 Z M 98.37 15.49 L 98.37 15.2 C 98.37 14.42 98.37 13.64 98.37 12.86 C 98.37 12.73 98.38 12.6 98.4 12.47 C 98.48 12.04 98.72 11.72 99.13 11.54 C 99.79 11.25 100.43 11.56 100.61 12.25 C 100.67 12.48 100.69 12.72 100.69 12.96 C 100.7 13.71 100.69 14.45 100.69 15.2 L 100.69 15.49 L 101.52 15.49 C 101.53 15.43 101.54 15.38 101.54 15.34 C 101.54 14.4 101.55 13.46 101.53 12.53 C 101.53 12.26 101.47 11.98 101.37 11.73 C 101.13 11.1 100.64 10.77 99.98 10.74 C 99.4 10.71 98.92 10.93 98.53 11.37 C 98.49 11.41 98.45 11.45 98.37 11.53 L 98.37 10.53 C 98.37 10.22 98.37 9.91 98.37 9.6 C 98.37 9.29 98.38 8.97 98.36 8.65 C 98.2 8.65 98.07 8.65 97.94 8.65 C 97.81 8.65 97.67 8.65 97.54 8.66 L 97.54 15.49 L 98.37 15.49 Z M 51.96 14.63 C 51.65 13.34 51.32 12.09 50.98 10.84 L 50.1 10.84 C 50.58 12.41 51.05 13.96 51.52 15.5 L 52.32 15.5 C 52.71 14.28 53.19 13.09 53.5 11.85 C 53.83 13.09 54.27 14.29 54.64 15.5 L 55.44 15.5 C 55.94 13.95 56.44 12.41 56.95 10.85 L 56.09 10.85 C 55.73 12.11 55.39 13.35 55.05 14.57 C 54.67 13.35 54.29 12.1 53.91 10.84 L 53.16 10.84 C 52.76 12.1 52.37 13.34 51.96 14.63 L 51.96 14.63 Z M 77.64 11.35 C 77.22 10.9 76.73 10.73 76.17 10.73 C 75.31 10.74 74.58 11.29 74.26 12.15 C 74.08 12.62 74.06 13.11 74.1 13.6 C 74.15 14.14 74.35 14.63 74.73 15.03 C 75.57 15.91 77.04 15.73 77.62 14.86 C 77.64 14.83 77.67 14.81 77.71 14.77 C 77.77 15.02 77.7 15.27 77.8 15.5 C 78.05 15.5 78.28 15.53 78.5 15.49 L 78.5 8.67 L 77.64 8.67 L 77.64 11.35 Z M 94.37 29.48 L 94.37 29.18 C 94.37 28.04 94.37 26.91 94.37 25.78 C 94.38 25.53 94.39 25.28 94.42 25.03 C 94.47 24.62 94.61 24.23 94.86 23.89 C 95.28 23.33 95.84 23.09 96.53 23.17 C 96.6 23.18 96.66 23.18 96.73 23.18 L 96.73 21.89 C 95.47 21.76 94.72 22.39 94.22 23.45 C 94.19 22.98 94.17 22.51 94.15 22.02 C 93.93 22.02 93.74 22.02 93.55 22.02 C 93.36 22.02 93.17 22.02 93 22.03 C 93 24.53 93.01 27 93.02 29.48 L 94.37 29.48 Z M 39.32 15.48 C 39.56 15.5 39.79 15.52 40.02 15.54 C 40.75 15.58 41.49 15.58 42.21 15.41 C 43.34 15.15 44.14 14.52 44.5 13.4 C 44.75 12.64 44.78 11.86 44.58 11.09 C 44.34 10.16 43.76 9.52 42.85 9.19 C 42.64 9.11 42.41 9.06 42.19 9.02 C 41.4 8.87 40.61 8.92 39.82 9 C 39.65 9.02 39.48 9.05 39.32 9.07 L 39.32 15.48 Z M 79.72 23.07 L 79.72 23.38 C 79.72 24.65 79.72 25.92 79.72 27.19 C 79.72 27.6 79.75 28.01 79.87 28.41 C 80.07 29.05 80.5 29.45 81.16 29.59 C 81.58 29.69 82 29.66 82.42 29.6 C 82.6 29.58 82.78 29.56 82.92 29.46 C 82.92 29.28 82.93 29.12 82.92 28.96 C 82.91 28.79 82.89 28.63 82.87 28.48 C 82.55 28.5 82.27 28.53 81.99 28.52 C 81.54 28.5 81.28 28.29 81.17 27.87 C 81.1 27.63 81.07 27.38 81.07 27.13 C 81.06 25.86 81.06 24.59 81.06 23.32 C 81.06 23.24 81.07 23.17 81.08 23.06 L 83.02 23.06 L 83.02 22.01 L 81.06 22.01 L 81.06 21.3 C 81.06 21.06 81.07 20.82 81.06 20.58 C 81.06 20.35 81.09 20.12 81.04 19.88 C 80.58 20 80.15 20.11 79.71 20.23 L 79.71 22.02 L 78.57 22.02 L 78.57 23.07 L 79.72 23.07 Z M 20.74 11.85 C 21.54 11.9 22.28 11.79 22.99 11.47 C 23.68 11.15 24.26 10.69 24.78 10.14 C 25.26 9.62 25.66 9.05 25.97 8.43 C 26.44 7.49 26.64 6.49 26.59 5.44 C 26.59 5.37 26.57 5.29 26.56 5.21 C 26.46 5.21 26.38 5.19 26.31 5.2 C 26.13 5.22 25.95 5.24 25.77 5.29 C 24.35 5.66 23.12 6.34 22.17 7.48 C 21.47 8.33 20.96 9.28 20.77 10.37 C 20.69 10.85 20.64 11.34 20.74 11.85 L 20.74 11.85 Z M 98.75 26.02 L 104 26.02 C 104.26 24.94 103.84 23.45 103.09 22.69 C 102.74 22.33 102.33 22.1 101.85 21.97 C 101.31 21.84 100.77 21.82 100.23 21.93 C 99.01 22.18 98.2 22.93 97.74 24.05 C 97.37 24.97 97.3 25.92 97.5 26.89 C 97.82 28.35 98.72 29.27 100.21 29.57 C 101.01 29.73 101.83 29.67 102.63 29.51 C 102.97 29.44 103.3 29.35 103.63 29.18 C 103.55 28.86 103.48 28.55 103.4 28.22 C 103.28 28.26 103.19 28.3 103.1 28.32 C 102.26 28.6 101.4 28.7 100.52 28.5 C 99.43 28.26 98.69 27.31 98.75 26.02 L 98.75 26.02 Z M 91.34 25.72 C 91.29 25.35 91.27 24.97 91.18 24.6 C 90.88 23.33 90.13 22.44 88.85 22.04 C 88.3 21.86 87.73 21.82 87.15 21.9 C 85.75 22.09 84.74 22.81 84.22 24.13 C 83.8 25.19 83.79 26.28 84.18 27.35 C 84.57 28.45 85.35 29.18 86.48 29.51 C 87.07 29.68 87.68 29.7 88.28 29.59 C 89.68 29.31 90.64 28.52 91.09 27.17 C 91.25 26.7 91.32 26.22 91.34 25.72 L 91.34 25.72 Z M 71.27 29 C 71.45 29.09 71.61 29.18 71.78 29.24 C 72.68 29.61 73.63 29.71 74.6 29.62 C 75.05 29.58 75.49 29.47 75.9 29.29 C 77.32 28.67 77.89 27.29 77.55 25.86 C 77.39 25.19 76.96 24.71 76.4 24.32 C 75.97 24.02 75.48 23.81 74.99 23.61 C 74.67 23.48 74.33 23.35 74.02 23.18 C 73.77 23.05 73.53 22.89 73.32 22.7 C 72.6 22.01 72.74 20.85 73.61 20.35 C 73.81 20.23 74.04 20.15 74.27 20.11 C 75.07 19.96 75.85 20.1 76.6 20.42 C 76.67 20.45 76.75 20.49 76.85 20.53 C 76.98 20.16 77.1 19.81 77.23 19.44 C 77.1 19.38 77 19.32 76.89 19.28 C 76.11 18.97 75.3 18.88 74.46 18.95 C 73.83 19 73.24 19.17 72.71 19.52 C 71.7 20.18 71.26 21.38 71.6 22.52 C 71.76 23.07 72.11 23.49 72.55 23.83 C 73.02 24.19 73.56 24.43 74.11 24.65 C 74.46 24.79 74.81 24.93 75.15 25.11 C 75.38 25.23 75.6 25.4 75.79 25.58 C 76.45 26.19 76.47 27.63 75.43 28.21 C 75.13 28.37 74.82 28.47 74.48 28.51 C 73.55 28.6 72.69 28.41 71.87 27.99 C 71.79 27.95 71.71 27.92 71.61 27.87 C 71.5 28.25 71.38 28.61 71.27 29 L 71.27 29 Z M 41.88 29.48 C 42.24 28.4 42.6 27.31 42.96 26.24 L 46.69 26.24 C 47.06 27.34 47.43 28.41 47.8 29.49 C 48.27 29.49 48.7 29.49 49.13 29.49 C 49.16 29.49 49.2 29.48 49.25 29.47 C 48.06 26 46.87 22.55 45.68 19.1 L 44.03 19.1 C 42.84 22.56 41.66 26.01 40.47 29.48 L 41.88 29.48 Z M 60.95 28.54 C 61.17 28.75 61.36 28.97 61.58 29.13 C 62.26 29.63 63.03 29.74 63.83 29.61 C 65.1 29.41 65.94 28.67 66.41 27.5 C 66.72 26.72 66.78 25.9 66.7 25.07 C 66.64 24.46 66.45 23.88 66.13 23.35 C 64.91 21.32 62.08 21.49 60.98 23.11 C 60.94 23.16 60.9 23.21 60.82 23.3 C 60.8 22.85 60.77 22.44 60.75 22.04 L 59.53 22.04 C 59.63 25.55 59.55 29.05 59.59 32.54 C 59.94 32.59 60.74 32.58 60.95 32.52 L 60.95 28.54 Z M 52.07 28.53 C 52.12 28.55 52.13 28.55 52.14 28.55 C 52.16 28.58 52.19 28.6 52.21 28.63 C 52.55 29.1 53.02 29.39 53.58 29.54 C 55.04 29.92 56.73 29.35 57.46 27.69 C 58 26.46 58.04 25.18 57.55 23.93 C 57.11 22.78 56.28 22.03 55.01 21.89 C 53.84 21.76 52.86 22.13 52.14 23.09 C 52.09 23.14 52.05 23.2 51.97 23.3 C 51.94 22.84 51.91 22.44 51.89 22.04 L 50.66 22.04 C 50.66 22.14 50.66 22.23 50.66 22.31 C 50.68 23.38 50.71 24.46 50.71 25.53 C 50.72 27.77 50.72 30.01 50.72 32.26 C 50.72 32.35 50.72 32.45 50.73 32.56 L 52.07 32.56 L 52.07 28.53 Z M 31.89 15 C 31.61 14.66 31.37 14.35 31.09 14.07 C 30.54 13.51 29.9 13.08 29.18 12.76 C 28.32 12.38 27.42 12.19 26.5 12.12 C 25.61 12.06 24.76 12.23 23.92 12.5 C 23.19 12.74 22.46 12.98 21.74 13.26 C 21.19 13.48 20.65 13.49 20.11 13.26 C 20.08 13.25 20.04 13.24 20.01 13.23 C 19.35 13 18.7 12.75 18.03 12.53 C 17.34 12.31 16.64 12.16 15.9 12.2 C 14.83 12.26 13.85 12.55 12.92 13.07 C 11.38 13.92 10.35 15.21 9.67 16.79 C 9.23 17.82 9.01 18.9 8.96 20.01 C 8.92 20.71 8.95 21.42 9 22.12 C 9.07 23.09 9.26 24.04 9.52 24.97 C 9.91 26.39 10.45 27.74 11.15 29.03 C 11.74 30.09 12.45 31.07 13.23 32.01 C 13.69 32.57 14.21 33.08 14.82 33.47 C 15.24 33.74 15.69 33.94 16.19 33.98 C 16.78 34.02 17.35 33.93 17.9 33.73 C 18.37 33.56 18.84 33.38 19.31 33.21 C 19.92 33 20.54 32.86 21.18 32.84 C 22.06 32.81 22.9 33.03 23.7 33.36 C 24.22 33.57 24.75 33.77 25.3 33.88 C 25.81 33.98 26.31 34 26.82 33.88 C 27.58 33.71 28.19 33.29 28.74 32.76 C 29.26 32.27 29.69 31.7 30.12 31.13 C 31.17 29.72 31.98 28.2 32.54 26.54 C 32.57 26.47 32.57 26.4 32.59 26.34 C 30.31 25.19 28.91 23.46 28.74 20.89 C 28.56 18.31 29.66 16.38 31.89 15 L 31.89 15 Z M 109.95 40 L 4.68 40 C 4.64 39.98 4.6 39.96 4.56 39.95 C 2.32 39.58 0.6 37.93 0.14 35.73 C 0.1 35.52 0.05 35.31 0 35.1 L 0 4.9 C 0.03 4.78 0.08 4.67 0.1 4.56 C 0.42 2.33 2.19 0.5 4.41 0.1 C 4.57 0.07 4.73 0.03 4.88 0 L 109.74 0 C 109.82 0.02 109.89 0.04 109.96 0.06 C 110.73 0.17 111.44 0.41 112.09 0.83 C 113.48 1.75 114.34 3.01 114.53 4.68 C 114.54 4.72 114.56 4.76 114.58 4.79 L 114.58 35.21 C 114.55 35.38 114.53 35.56 114.49 35.73 C 113.95 37.97 112.55 39.37 110.29 39.91 C 110.18 39.94 110.06 39.97 109.95 40 L 109.95 40 Z M 109.95 40" />
    <path fill="#ffffff" fill-rule="evenodd" d="M 31.89 15 C 29.66 16.38 28.56 18.31 28.74 20.89 C 28.91 23.46 30.31 25.19 32.59 26.34 C 32.57 26.4 32.57 26.47 32.54 26.54 C 31.98 28.2 31.17 29.72 30.12 31.13 C 29.69 31.7 29.26 32.27 28.74 32.76 C 28.19 33.29 27.58 33.71 26.82 33.88 C 26.31 34 25.81 33.98 25.3 33.88 C 24.75 33.77 24.22 33.57 23.7 33.36 C 22.9 33.03 22.06 32.81 21.18 32.84 C 20.54 32.86 19.92 33 19.31 33.21 C 18.84 33.38 18.37 33.56 17.9 33.73 C 17.35 33.93 16.78 34.02 16.19 33.98 C 15.69 33.94 15.24 33.74 14.82 33.47 C 14.21 33.08 13.69 32.57 13.23 32.01 C 12.46 31.07 11.74 30.09 11.15 29.03 C 10.45 27.74 9.91 26.39 9.52 24.97 C 9.26 24.04 9.06 23.09 9 22.12 C 8.95 21.42 8.92 20.71 8.96 20.01 C 9.01 18.9 9.23 17.82 9.67 16.79 C 10.35 15.21 11.38 13.92 12.92 13.07 C 13.85 12.55 14.83 12.26 15.9 12.2 C 16.64 12.16 17.34 12.31 18.03 12.53 C 18.7 12.75 19.35 13 20.01 13.23 C 20.04 13.24 20.08 13.25 20.11 13.26 C 20.65 13.49 21.19 13.48 21.74 13.26 C 22.46 12.98 23.19 12.74 23.92 12.5 C 24.76 12.23 25.61 12.06 26.5 12.12 C 27.42 12.19 28.32 12.38 29.18 12.76 C 29.9 13.08 30.54 13.51 31.09 14.07 C 31.37 14.35 31.6 14.66 31.89 15" />
    <path fill="#ffffff" fill-rule="evenodd" d="M 52.08 25.83 C 52.08 26.02 52.06 26.2 52.08 26.37 C 52.11 26.65 52.12 26.93 52.21 27.18 C 52.59 28.28 53.77 28.84 54.9 28.47 C 55.6 28.25 56.02 27.75 56.27 27.09 C 56.49 26.49 56.53 25.87 56.46 25.24 C 56.4 24.68 56.22 24.15 55.85 23.7 C 55.39 23.14 54.78 22.9 54.06 22.97 C 53.14 23.07 52.43 23.7 52.17 24.61 C 52.06 25.01 52.07 25.42 52.08 25.83 M 52.07 28.53 L 52.07 32.56 L 50.73 32.56 C 50.72 32.45 50.72 32.35 50.72 32.26 C 50.72 30.01 50.72 27.77 50.71 25.53 C 50.71 24.46 50.68 23.38 50.67 22.31 C 50.66 22.23 50.66 22.14 50.66 22.04 L 51.89 22.04 C 51.91 22.44 51.94 22.84 51.97 23.3 C 52.05 23.2 52.09 23.14 52.14 23.09 C 52.86 22.13 53.84 21.76 55.01 21.89 C 56.28 22.03 57.11 22.78 57.55 23.93 C 58.04 25.18 58 26.46 57.46 27.69 C 56.73 29.35 55.04 29.92 53.58 29.54 C 53.02 29.39 52.55 29.1 52.21 28.63 C 52.19 28.6 52.16 28.58 52.14 28.55 C 52.13 28.55 52.12 28.55 52.07 28.53" />
    <path fill="#ffffff" fill-rule="evenodd" d="M 60.95 25.83 C 60.95 26.07 60.95 26.31 60.95 26.55 C 60.96 27.68 62 28.82 63.53 28.53 C 64.32 28.38 64.82 27.87 65.1 27.15 C 65.37 26.45 65.41 25.73 65.28 24.99 C 65.19 24.5 65.01 24.04 64.67 23.65 C 64.21 23.13 63.62 22.89 62.93 22.97 C 61.97 23.08 61.37 23.64 61.06 24.53 C 60.91 24.95 60.95 25.39 60.95 25.83 M 60.95 28.54 L 60.95 32.52 C 60.74 32.58 59.94 32.59 59.59 32.54 C 59.55 29.05 59.63 25.55 59.53 22.04 L 60.75 22.04 C 60.77 22.44 60.8 22.85 60.82 23.3 C 60.9 23.21 60.94 23.16 60.98 23.11 C 62.08 21.49 64.91 21.32 66.13 23.35 C 66.45 23.88 66.64 24.46 66.7 25.07 C 66.78 25.9 66.72 26.72 66.41 27.5 C 65.94 28.67 65.1 29.41 63.83 29.61 C 63.03 29.74 62.26 29.63 61.58 29.13 C 61.36 28.97 61.17 28.75 60.95 28.54" />
    <path fill="#ffffff" fill-rule="evenodd" d="M 44.82 20.34 C 44.4 21.98 43.78 23.54 43.26 25.14 L 46.38 25.14 C 45.87 23.53 45.23 21.98 44.82 20.34 M 41.88 29.48 L 40.47 29.48 C 41.66 26.01 42.84 22.56 44.03 19.1 L 45.68 19.1 C 46.87 22.55 48.06 26 49.25 29.47 C 49.2 29.48 49.16 29.49 49.13 29.49 C 48.7 29.49 48.27 29.49 47.8 29.49 C 47.43 28.41 47.06 27.34 46.69 26.24 L 42.96 26.24 C 42.6 27.31 42.24 28.4 41.88 29.48" />
    <path fill="#ffffff" fill-rule="evenodd" d="M 71.27 29 C 71.38 28.61 71.5 28.25 71.61 27.87 C 71.71 27.92 71.79 27.95 71.87 27.99 C 72.69 28.41 73.55 28.6 74.48 28.51 C 74.81 28.47 75.13 28.37 75.43 28.21 C 76.47 27.63 76.45 26.19 75.79 25.58 C 75.6 25.4 75.38 25.23 75.15 25.11 C 74.81 24.93 74.46 24.79 74.11 24.65 C 73.56 24.43 73.02 24.19 72.55 23.83 C 72.11 23.49 71.76 23.07 71.6 22.52 C 71.26 21.38 71.7 20.18 72.71 19.52 C 73.24 19.17 73.83 19 74.46 18.95 C 75.3 18.88 76.11 18.97 76.89 19.28 C 77 19.32 77.1 19.38 77.23 19.44 C 77.1 19.81 76.98 20.16 76.85 20.53 C 76.75 20.49 76.67 20.45 76.6 20.42 C 75.85 20.1 75.07 19.96 74.27 20.11 C 74.04 20.15 73.81 20.23 73.61 20.35 C 72.74 20.85 72.6 22.01 73.32 22.7 C 73.53 22.89 73.77 23.05 74.02 23.18 C 74.33 23.35 74.67 23.48 74.99 23.61 C 75.48 23.81 75.97 24.02 76.4 24.32 C 76.96 24.71 77.39 25.19 77.55 25.86 C 77.89 27.29 77.32 28.67 75.9 29.29 C 75.49 29.47 75.05 29.58 74.6 29.62 C 73.63 29.71 72.68 29.61 71.78 29.24 C 71.61 29.18 71.45 29.09 71.27 29" />
    <path fill="#ffffff" fill-rule="evenodd" d="M 89.9 25.76 C 89.9 25.09 89.76 24.46 89.41 23.89 C 88.88 23.05 87.97 22.7 87 22.98 C 86.31 23.18 85.87 23.65 85.6 24.29 C 85.23 25.2 85.21 26.13 85.54 27.05 C 85.68 27.46 85.91 27.81 86.23 28.1 C 87.02 28.81 88.2 28.8 88.99 28.09 C 89.25 27.85 89.44 27.57 89.59 27.26 C 89.81 26.78 89.9 26.28 89.9 25.76 M 91.34 25.72 C 91.32 26.22 91.25 26.7 91.09 27.17 C 90.64 28.53 89.68 29.31 88.28 29.59 C 87.68 29.7 87.07 29.68 86.48 29.51 C 85.35 29.18 84.57 28.45 84.18 27.35 C 83.79 26.28 83.8 25.19 84.22 24.13 C 84.74 22.81 85.75 22.09 87.15 21.9 C 87.73 21.82 88.3 21.86 88.85 22.04 C 90.13 22.44 90.88 23.33 91.18 24.6 C 91.27 24.97 91.29 25.35 91.34 25.72" />
    <path fill="#ffffff" fill-rule="evenodd" d="M 102.75 25.03 C 102.72 24.79 102.71 24.57 102.67 24.35 C 102.39 23.07 101.09 22.45 99.95 23.06 C 99.17 23.47 98.87 24.19 98.73 25.03 L 102.75 25.03 Z M 98.75 26.02 C 98.69 27.31 99.43 28.26 100.52 28.5 C 101.4 28.7 102.26 28.6 103.1 28.32 C 103.19 28.3 103.28 28.26 103.4 28.22 C 103.48 28.55 103.55 28.86 103.63 29.18 C 103.3 29.35 102.97 29.44 102.63 29.51 C 101.83 29.67 101.01 29.73 100.21 29.57 C 98.72 29.27 97.82 28.35 97.5 26.89 C 97.3 25.92 97.37 24.97 97.74 24.05 C 98.2 22.93 99.01 22.18 100.23 21.93 C 100.77 21.82 101.31 21.84 101.85 21.97 C 102.33 22.1 102.74 22.33 103.09 22.69 C 103.84 23.45 104.26 24.94 104 26.02 L 98.75 26.02 Z M 98.75 26.02" />
    <path fill="#ffffff" fill-rule="evenodd" d="M 20.74 11.84 C 20.64 11.34 20.69 10.85 20.77 10.37 C 20.96 9.28 21.47 8.33 22.17 7.48 C 23.12 6.34 24.35 5.66 25.77 5.29 C 25.95 5.24 26.13 5.22 26.31 5.2 C 26.38 5.19 26.46 5.21 26.56 5.21 C 26.57 5.29 26.59 5.37 26.59 5.44 C 26.64 6.49 26.44 7.49 25.97 8.43 C 25.66 9.05 25.26 9.62 24.78 10.14 C 24.26 10.69 23.68 11.15 22.99 11.47 C 22.28 11.79 21.54 11.9 20.74 11.84" />
    <path fill="#ffffff" fill-rule="evenodd" d="M 79.72 23.07 L 78.57 23.07 L 78.57 22.02 L 79.71 22.02 L 79.71 20.23 C 80.15 20.11 80.58 20 81.04 19.88 C 81.09 20.12 81.06 20.35 81.06 20.58 C 81.07 20.82 81.06 21.06 81.06 21.3 L 81.06 22.01 L 83.02 22.01 L 83.02 23.06 L 81.08 23.06 C 81.07 23.17 81.06 23.24 81.06 23.32 C 81.06 24.59 81.06 25.86 81.07 27.13 C 81.07 27.38 81.1 27.63 81.17 27.87 C 81.28 28.29 81.54 28.5 81.99 28.52 C 82.27 28.53 82.55 28.5 82.87 28.48 C 82.89 28.63 82.91 28.79 82.92 28.96 C 82.93 29.12 82.92 29.28 82.92 29.46 C 82.78 29.55 82.6 29.58 82.42 29.6 C 82 29.66 81.58 29.69 81.16 29.59 C 80.5 29.45 80.07 29.05 79.87 28.41 C 79.75 28.01 79.72 27.6 79.72 27.19 C 79.72 25.92 79.72 24.65 79.72 23.38 L 79.72 23.07" />
    <path fill="#ffffff" fill-rule="evenodd" d="M 40.17 9.66 L 40.17 14.83 C 40.81 14.89 41.43 14.91 42.04 14.74 C 42.88 14.51 43.43 13.97 43.68 13.14 C 43.84 12.56 43.86 11.96 43.74 11.38 C 43.56 10.55 43.06 10 42.24 9.75 C 41.87 9.64 41.5 9.59 41.11 9.6 C 40.8 9.61 40.49 9.64 40.17 9.66 M 39.32 15.48 L 39.32 9.07 C 39.48 9.05 39.65 9.02 39.82 9 C 40.61 8.92 41.4 8.87 42.19 9.02 C 42.41 9.06 42.64 9.11 42.85 9.19 C 43.76 9.52 44.34 10.16 44.58 11.09 C 44.78 11.86 44.75 12.64 44.5 13.4 C 44.14 14.52 43.34 15.15 42.21 15.41 C 41.49 15.58 40.75 15.58 40.02 15.54 C 39.79 15.52 39.56 15.5 39.32 15.48" />
    <path fill="#ffffff" fill-rule="evenodd" d="M 94.37 29.48 L 93.02 29.48 C 93.01 27 93 24.53 93 22.03 C 93.17 22.02 93.36 22.02 93.55 22.02 C 93.74 22.02 93.93 22.02 94.15 22.02 C 94.17 22.51 94.19 22.98 94.22 23.45 C 94.72 22.39 95.47 21.76 96.73 21.88 L 96.73 23.18 C 96.66 23.18 96.6 23.17 96.53 23.17 C 95.84 23.09 95.28 23.33 94.86 23.89 C 94.61 24.23 94.47 24.62 94.42 25.03 C 94.39 25.28 94.38 25.53 94.37 25.78 C 94.37 26.91 94.37 28.04 94.37 29.18 L 94.37 29.48" />
    <path fill="#ffffff" fill-rule="evenodd" d="M 77.63 13.14 L 77.63 13.14 C 77.63 12.98 77.64 12.82 77.63 12.65 C 77.61 12.06 77.23 11.58 76.68 11.44 C 76.09 11.3 75.52 11.53 75.23 12.07 C 74.86 12.77 74.85 13.49 75.18 14.2 C 75.44 14.76 76.03 15.02 76.63 14.89 C 77.19 14.76 77.6 14.27 77.63 13.68 C 77.64 13.5 77.63 13.32 77.63 13.14 M 77.64 11.35 L 77.64 8.67 L 78.5 8.67 L 78.5 15.49 C 78.28 15.53 78.05 15.5 77.8 15.5 C 77.7 15.27 77.77 15.02 77.71 14.77 C 77.67 14.81 77.64 14.83 77.62 14.86 C 77.04 15.73 75.57 15.91 74.73 15.03 C 74.35 14.63 74.15 14.14 74.1 13.6 C 74.06 13.11 74.08 12.62 74.26 12.15 C 74.58 11.29 75.31 10.74 76.17 10.73 C 76.73 10.73 77.22 10.9 77.64 11.35" />
    <path fill="#ffffff" fill-rule="evenodd" d="M 51.96 14.63 C 52.37 13.34 52.76 12.1 53.16 10.84 L 53.91 10.84 C 54.29 12.1 54.67 13.35 55.05 14.57 C 55.39 13.35 55.73 12.11 56.09 10.85 L 56.95 10.85 C 56.44 12.41 55.94 13.95 55.44 15.5 L 54.64 15.5 C 54.27 14.29 53.83 13.09 53.5 11.85 C 53.19 13.09 52.71 14.28 52.32 15.5 L 51.52 15.5 C 51.05 13.96 50.58 12.41 50.1 10.84 L 50.98 10.84 C 51.32 12.09 51.65 13.34 51.96 14.63" />
    <path fill="#ffffff" fill-rule="evenodd" d="M 98.37 15.49 L 97.54 15.49 L 97.54 8.66 C 97.67 8.65 97.81 8.65 97.94 8.65 C 98.07 8.65 98.2 8.65 98.36 8.65 C 98.38 8.97 98.37 9.29 98.37 9.6 C 98.37 9.91 98.37 10.22 98.37 10.53 L 98.37 11.53 C 98.45 11.45 98.49 11.41 98.53 11.37 C 98.92 10.93 99.4 10.71 99.98 10.74 C 100.64 10.77 101.13 11.1 101.37 11.73 C 101.47 11.98 101.53 12.26 101.53 12.53 C 101.55 13.46 101.54 14.4 101.54 15.34 C 101.54 15.38 101.53 15.43 101.52 15.49 L 100.69 15.49 L 100.69 15.2 C 100.69 14.45 100.7 13.71 100.69 12.96 C 100.69 12.72 100.67 12.48 100.61 12.25 C 100.43 11.56 99.79 11.25 99.13 11.54 C 98.72 11.72 98.48 12.04 98.4 12.47 C 98.38 12.6 98.37 12.73 98.37 12.86 C 98.37 13.64 98.37 14.42 98.37 15.2 L 98.37 15.49" />
    <path fill="#ffffff" fill-rule="evenodd" d="M 85.38 13.17 C 85.38 12.78 85.3 12.41 85.11 12.06 C 84.6 11.12 83.28 11.18 82.81 12.03 C 82.41 12.76 82.38 13.52 82.79 14.25 C 83.31 15.21 84.55 15.2 85.1 14.26 C 85.3 13.93 85.38 13.56 85.38 13.17 L 85.38 13.17 Z M 86.29 13.14 C 86.25 13.4 86.23 13.67 86.16 13.93 C 85.83 15.22 84.64 15.71 83.64 15.59 C 82.46 15.45 81.69 14.59 81.65 13.37 C 81.64 13.04 81.67 12.71 81.75 12.4 C 82.1 11.1 83.25 10.62 84.28 10.75 C 85.42 10.89 86.17 11.7 86.26 12.86 C 86.26 12.95 86.26 13.04 86.26 13.14 L 86.29 13.14 Z M 86.29 13.14" />
    <path fill="#ffffff" fill-rule="evenodd" d="M 49.01 13.16 C 49.01 12.77 48.92 12.4 48.73 12.05 C 48.22 11.12 46.91 11.18 46.44 12.02 C 46.04 12.75 46.02 13.5 46.41 14.24 C 46.64 14.69 47.03 14.95 47.56 14.96 C 48.1 14.96 48.47 14.69 48.74 14.25 C 48.93 13.91 49.01 13.55 49.01 13.16 M 49.91 13.15 C 49.88 13.41 49.86 13.67 49.79 13.91 C 49.46 15.24 48.24 15.72 47.25 15.59 C 46.08 15.44 45.33 14.6 45.27 13.38 C 45.25 13.04 45.28 12.71 45.38 12.39 C 45.74 11.11 46.85 10.63 47.89 10.75 C 49.05 10.88 49.81 11.71 49.88 12.87 C 49.89 12.96 49.88 13.06 49.88 13.15 C 49.89 13.15 49.9 13.15 49.91 13.15" />
    <path fill="#ffffff" fill-rule="evenodd" d="M 65.34 13.2 C 65.34 13.61 65.43 14.04 65.71 14.41 C 65.98 14.77 66.34 14.97 66.8 14.96 C 67.34 14.94 67.72 14.66 67.96 14.21 C 68.31 13.53 68.3 12.83 67.98 12.15 C 67.75 11.67 67.37 11.39 66.81 11.38 C 66.24 11.37 65.84 11.64 65.58 12.13 C 65.41 12.45 65.35 12.79 65.34 13.2 M 64.45 13.18 C 64.49 12.92 64.51 12.65 64.58 12.4 C 64.9 11.2 65.96 10.62 67.09 10.75 C 68.2 10.87 68.93 11.63 69.07 12.73 C 69.11 13.11 69.1 13.48 69.01 13.86 C 68.7 15.19 67.5 15.72 66.46 15.59 C 65.32 15.46 64.54 14.61 64.48 13.47 C 64.48 13.37 64.48 13.28 64.48 13.18 C 64.47 13.18 64.46 13.18 64.45 13.18" />
    <path fill="#ffffff" fill-rule="evenodd" d="M 105.69 12.68 C 105.69 12.59 105.7 12.5 105.69 12.42 C 105.62 11.88 105.31 11.5 104.85 11.39 C 104.03 11.18 103.23 11.82 103.25 12.68 L 105.69 12.68 Z M 106.48 13.31 L 103.24 13.31 C 103.13 13.9 103.51 14.56 104.08 14.8 C 104.45 14.96 104.84 14.98 105.23 14.92 C 105.52 14.88 105.8 14.81 106.12 14.74 C 106.16 14.91 106.21 15.09 106.26 15.29 C 106.22 15.32 106.19 15.35 106.16 15.36 C 105.48 15.61 104.78 15.69 104.07 15.54 C 103.22 15.36 102.69 14.82 102.47 13.99 C 102.3 13.32 102.34 12.66 102.62 12.03 C 103.07 10.97 104.11 10.57 105.1 10.79 C 105.51 10.88 105.83 11.09 106.08 11.42 C 106.38 11.81 106.64 12.57 106.48 13.31 L 106.48 13.31 Z M 106.48 13.31" />
    <path fill="#ffffff" fill-rule="evenodd" d="M 61.61 15.49 L 60.76 15.49 C 60.76 15.4 60.75 15.31 60.75 15.22 C 60.75 14.45 60.76 13.69 60.75 12.92 C 60.75 12.71 60.73 12.49 60.69 12.28 C 60.53 11.54 59.8 11.22 59.12 11.58 C 58.69 11.81 58.46 12.18 58.45 12.66 C 58.44 13.44 58.45 14.21 58.45 14.98 L 58.45 15.49 L 57.58 15.49 L 57.58 10.85 C 57.61 10.84 57.64 10.83 57.67 10.83 C 57.87 10.83 58.07 10.83 58.3 10.83 C 58.32 11.07 58.34 11.3 58.37 11.56 C 58.43 11.49 58.47 11.44 58.51 11.39 C 58.99 10.8 59.84 10.57 60.55 10.84 C 61.14 11.07 61.44 11.53 61.56 12.12 C 61.6 12.3 61.61 12.48 61.62 12.66 C 61.62 13.54 61.62 14.43 61.62 15.31 C 61.62 15.36 61.61 15.41 61.61 15.49" />
    <path fill="#ffffff" fill-rule="evenodd" d="M 72.43 13.1 C 72 13.11 71.6 13.13 71.22 13.25 C 71.01 13.31 70.82 13.41 70.67 13.57 C 70.27 14.01 70.43 14.75 70.95 14.93 C 71.56 15.13 72.32 14.71 72.42 14.07 C 72.46 13.76 72.43 13.44 72.43 13.1 L 72.43 13.1 Z M 72.57 15.49 C 72.55 15.31 72.53 15.14 72.5 14.93 C 72.41 15.02 72.35 15.07 72.29 15.13 C 71.78 15.58 71.19 15.72 70.53 15.53 C 69.44 15.22 69.34 13.89 69.98 13.23 C 70.31 12.9 70.72 12.72 71.17 12.64 C 71.49 12.58 71.82 12.56 72.14 12.52 C 72.23 12.51 72.31 12.51 72.39 12.51 C 72.5 11.93 72.17 11.46 71.6 11.39 C 71.17 11.33 70.76 11.4 70.36 11.58 C 70.29 11.61 70.22 11.65 70.12 11.69 C 70.06 11.51 70 11.34 69.93 11.15 C 70.04 11.09 70.13 11.03 70.23 10.99 C 70.84 10.73 71.48 10.65 72.13 10.82 C 72.64 10.95 72.98 11.27 73.14 11.76 C 73.22 12 73.25 12.25 73.27 12.49 C 73.29 12.78 73.27 13.08 73.27 13.37 C 73.28 14.07 73.29 14.77 73.3 15.49 L 72.57 15.49 Z M 72.57 15.49" />
    <path fill="#ffffff" fill-rule="evenodd" d="M 87.98 15.5 L 87.13 15.5 L 87.13 10.85 L 87.85 10.85 C 87.86 11.08 87.88 11.3 87.9 11.56 C 87.97 11.48 88.01 11.44 88.05 11.4 C 88.55 10.81 89.19 10.62 89.94 10.79 C 90.44 10.92 90.8 11.24 90.98 11.72 C 91.07 11.97 91.13 12.23 91.14 12.49 C 91.16 13.45 91.15 14.4 91.15 15.35 C 91.15 15.4 91.14 15.44 91.13 15.49 L 90.3 15.49 L 90.3 15.21 C 90.3 14.46 90.31 13.71 90.3 12.97 C 90.29 12.73 90.28 12.48 90.22 12.25 C 90.05 11.55 89.39 11.25 88.72 11.55 C 88.34 11.72 88.11 12.02 88.02 12.42 C 87.99 12.57 87.98 12.73 87.98 12.88 C 87.98 13.65 87.98 14.42 87.98 15.2 L 87.98 15.5" />
    <path fill="#ffffff" fill-rule="evenodd" d="M 96.75 14.87 C 96.77 14.97 96.78 15.05 96.79 15.14 C 96.79 15.25 96.79 15.36 96.79 15.5 C 96.31 15.64 95.83 15.69 95.36 15.45 C 95.05 15.28 94.89 15 94.84 14.66 C 94.8 14.44 94.78 14.22 94.78 13.99 C 94.77 13.26 94.78 12.53 94.78 11.8 L 94.78 11.5 L 94.09 11.5 C 94.02 11.28 94.07 11.07 94.05 10.84 L 94.78 10.84 L 94.78 9.72 C 95.06 9.64 95.32 9.57 95.62 9.5 L 95.62 10.83 L 96.84 10.83 L 96.84 11.48 C 96.45 11.5 96.05 11.48 95.64 11.5 C 95.63 11.57 95.62 11.64 95.62 11.7 C 95.62 12.45 95.62 13.2 95.62 13.94 C 95.62 14.11 95.64 14.27 95.67 14.43 C 95.74 14.75 95.93 14.9 96.26 14.9 C 96.41 14.9 96.57 14.88 96.75 14.87" />
    <path fill="#ffffff" fill-rule="evenodd" d="M 62.76 8.65 C 62.99 8.65 63.22 8.65 63.44 8.65 C 63.48 8.65 63.52 8.66 63.58 8.67 L 63.58 15.5 C 63.31 15.52 63.04 15.51 62.77 15.5 C 62.72 15.3 62.7 8.99 62.76 8.65" />
    <path fill="#797979" fill-rule="evenodd" d="M 52.08 25.83 C 52.07 25.42 52.06 25.01 52.17 24.61 C 52.43 23.7 53.14 23.07 54.06 22.97 C 54.78 22.9 55.39 23.14 55.85 23.7 C 56.22 24.15 56.4 24.68 56.46 25.24 C 56.53 25.87 56.49 26.49 56.27 27.09 C 56.02 27.75 55.6 28.25 54.9 28.47 C 53.77 28.84 52.59 28.28 52.21 27.18 C 52.12 26.93 52.11 26.65 52.08 26.37 C 52.06 26.2 52.08 26.02 52.08 25.83" />
    <path fill="#797979" fill-rule="evenodd" d="M 60.95 25.83 C 60.95 25.39 60.91 24.95 61.06 24.53 C 61.37 23.64 61.97 23.08 62.93 22.97 C 63.62 22.89 64.21 23.13 64.67 23.65 C 65.01 24.04 65.19 24.5 65.28 24.99 C 65.41 25.73 65.37 26.45 65.1 27.15 C 64.82 27.87 64.32 28.38 63.53 28.53 C 62 28.82 60.96 27.68 60.95 26.55 C 60.95 26.31 60.95 26.07 60.95 25.83" />
    <path fill="#797979" fill-rule="evenodd" d="M 44.82 20.34 C 45.23 21.98 45.87 23.53 46.38 25.14 L 43.26 25.14 C 43.78 23.54 44.4 21.98 44.82 20.34" />
    <path fill="#797979" fill-rule="evenodd" d="M 89.9 25.76 C 89.9 26.28 89.81 26.78 89.59 27.26 C 89.44 27.57 89.25 27.85 88.99 28.09 C 88.2 28.8 87.02 28.81 86.23 28.1 C 85.91 27.81 85.68 27.46 85.54 27.05 C 85.21 26.13 85.23 25.2 85.6 24.29 C 85.87 23.65 86.31 23.18 87 22.98 C 87.97 22.7 88.88 23.05 89.41 23.89 C 89.76 24.46 89.9 25.09 89.9 25.76" />
    <path fill="#797979" fill-rule="evenodd" d="M 102.75 25.03 L 98.73 25.03 C 98.87 24.19 99.17 23.47 99.95 23.06 C 101.09 22.45 102.39 23.07 102.67 24.35 C 102.71 24.57 102.72 24.79 102.75 25.03" />
    <path fill="#797979" fill-rule="evenodd" d="M 40.17 9.66 C 40.49 9.64 40.8 9.61 41.11 9.6 C 41.5 9.59 41.87 9.64 42.24 9.75 C 43.06 10 43.56 10.55 43.74 11.38 C 43.86 11.96 43.84 12.56 43.68 13.14 C 43.43 13.97 42.88 14.51 42.04 14.74 C 41.43 14.91 40.81 14.89 40.17 14.83 L 40.17 9.66 Z M 40.17 9.66" />
    <path fill="#797979" fill-rule="evenodd" d="M 77.63 13.14 C 77.63 13.32 77.64 13.5 77.63 13.68 C 77.6 14.27 77.19 14.76 76.63 14.89 C 76.03 15.02 75.44 14.76 75.18 14.2 C 74.85 13.49 74.86 12.77 75.23 12.07 C 75.52 11.53 76.09 11.3 76.68 11.44 C 77.23 11.58 77.61 12.06 77.63 12.65 C 77.64 12.82 77.63 12.98 77.63 13.14 L 77.63 13.14" />
    <path fill="#797979" fill-rule="evenodd" d="M 85.38 13.17 C 85.38 13.56 85.3 13.93 85.1 14.26 C 84.55 15.2 83.31 15.21 82.79 14.25 C 82.38 13.52 82.41 12.76 82.81 12.03 C 83.28 11.18 84.6 11.12 85.11 12.06 C 85.3 12.41 85.38 12.78 85.38 13.17" />
    <path fill="#797979" fill-rule="evenodd" d="M 49.01 13.16 C 49.01 13.55 48.93 13.91 48.74 14.25 C 48.47 14.69 48.1 14.96 47.56 14.96 C 47.03 14.95 46.64 14.69 46.41 14.24 C 46.02 13.5 46.04 12.75 46.44 12.02 C 46.91 11.19 48.22 11.12 48.73 12.05 C 48.92 12.4 49.01 12.77 49.01 13.16" />
    <path fill="#797979" fill-rule="evenodd" d="M 65.34 13.2 C 65.35 12.79 65.41 12.45 65.58 12.13 C 65.84 11.64 66.24 11.37 66.81 11.38 C 67.37 11.39 67.75 11.67 67.98 12.15 C 68.3 12.83 68.31 13.53 67.96 14.21 C 67.72 14.66 67.34 14.94 66.8 14.96 C 66.34 14.97 65.98 14.77 65.71 14.41 C 65.43 14.04 65.34 13.61 65.34 13.2" />
    <path fill="#797979" fill-rule="evenodd" d="M 105.69 12.68 L 103.25 12.68 C 103.23 11.82 104.03 11.18 104.85 11.39 C 105.31 11.5 105.62 11.88 105.69 12.42 C 105.7 12.5 105.69 12.59 105.69 12.68" />
    <path fill="#797979" fill-rule="evenodd" d="M 72.43 13.1 C 72.43 13.44 72.46 13.76 72.42 14.07 C 72.32 14.71 71.56 15.13 70.95 14.93 C 70.43 14.75 70.27 14.01 70.67 13.57 C 70.82 13.41 71.01 13.31 71.22 13.25 C 71.6 13.13 72 13.11 72.43 13.1" />
</svg>