<?xml version="1.0" encoding="utf-8"?>
<!-- Generator: Avocode 2.6.0 - http://avocode.com -->
<svg height="81" width="96" xmlns:xlink="http://www.w3.org/1999/xlink" xmlns="http://www.w3.org/2000/svg" viewBox="0 0 96 81">
    <path stroke-linejoin="miter" stroke-linecap="butt" stroke-width="2" stroke="#000000" fill="none" fill-rule="evenodd" d="M 94.24 75.67 L 94.24 50.93 C 89.83 46.52 85.42 42.11 81.01 37.7 L 41.76 37.7 C 39.81 37.7 38.22 39.39 38.22 41.45 L 38.22 75.67 C 38.22 77.73 39.81 79.42 41.76 79.42 L 90.7 79.42 C 92.65 79.42 94.24 77.73 94.24 75.67 L 94.24 75.67 Z M 94.24 75.67" />
    <path fill="#000000" fill-rule="evenodd" d="M 78.24 70.28 L 90.9 70.28 L 90.9 66.76 L 78.24 66.76 L 78.24 70.28 Z M 78.24 70.28" />
    <path fill="#000000" fill-rule="evenodd" d="M 78.24 64.42 L 90.9 64.42 L 90.9 60.91 L 78.24 60.91 L 78.24 64.42 Z M 78.24 64.42" />
    <path fill="#000000" fill-rule="evenodd" d="M 90.9 55.04 L 90.9 58.56 L 78.24 58.56 L 78.24 55.04 L 90.9 55.04" />
    <path fill="#000000" fill-rule="evenodd" d="M 78.24 52.7 L 87.85 52.7 L 87.85 49.18 L 78.24 49.18 L 78.24 52.7 Z M 78.24 52.7" />
    <path stroke-linejoin="miter" stroke-linecap="butt" stroke-width="2" stroke="#000000" fill="none" fill-rule="evenodd" d="M 45.25 73.8 L 45.25 43.32 L 63.53 43.32 L 63.53 73.8 L 45.25 73.8 L 45.25 73.8 L 45.25 73.8 Z M 45.25 73.8" />
    <path fill="#000000" fill-rule="evenodd" d="M 78.24 76.14 L 90.9 76.14 L 90.9 72.63 L 78.24 72.63 L 78.24 76.14 Z M 78.24 76.14" />
    <path stroke-linejoin="miter" stroke-linecap="butt" stroke-width="2" stroke="#000000" fill="none" fill-rule="evenodd" d="M 19.32 78.44 L 10.41 78.44 C 4.89 78.44 0.39 73.94 0.39 68.42 L 0.39 25.97 L 29.34 25.97 L 29.34 68.42 C 29.34 73.94 24.84 78.44 19.32 78.44 L 19.32 78.44 Z M 19.32 78.44" />
    <path stroke-linejoin="miter" stroke-linecap="butt" stroke-width="2" stroke="#000000" fill="none" fill-rule="evenodd" d="M 26.41 22.79 L 2.97 22.79 L 2.97 0.39 L 26.41 0.39 L 26.41 22.79 L 26.41 22.79 Z M 26.41 22.79" />
    <path fill="#000000" fill-rule="evenodd" d="M 5.74 13.39 L 13.41 13.39 L 13.41 10.83 L 5.74 10.83 L 5.74 13.39 Z M 5.74 13.39" />
    <path fill="#000000" fill-rule="evenodd" d="M 15.9 13.39 L 23.57 13.39 L 23.57 10.83 L 15.9 10.83 L 15.9 13.39 Z M 15.9 13.39" />
    <path fill="#000000" fill-rule="evenodd" d="M 21.72 47.14 L 21.72 43.46 L 18.04 43.46 L 18.04 47.14 L 19.06 47.14 L 19.06 50.06 L 15.58 53.54 L 15.58 38.01 L 17.42 38.01 L 14.76 32.69 L 12.1 38.01 L 13.94 38.01 L 13.94 57.02 L 10.67 53.74 L 10.67 50.63 C 11.27 50.33 11.69 49.71 11.69 48.99 C 11.69 47.97 10.87 47.14 9.85 47.14 C 8.83 47.14 8.01 47.97 8.01 48.99 C 8.01 49.71 8.42 50.33 9.03 50.63 L 9.03 54.39 L 9.02 54.41 L 13.94 59.34 L 13.94 65.28 C 12.53 65.65 11.49 66.92 11.49 68.44 C 11.49 70.25 12.95 71.72 14.76 71.72 C 16.57 71.72 18.04 70.25 18.04 68.44 C 18.04 66.92 16.99 65.65 15.58 65.28 L 15.58 55.85 L 20.71 50.72 L 20.7 50.71 L 20.7 47.14 L 21.72 47.14" />
    <path fill="#000000" fill-rule="evenodd" d="M 67.14 24.48 L 73.56 24.48 L 73.56 22.88 L 67.14 22.88 L 67.14 24.48 Z M 67.14 24.48" />
    <path fill="#000000" fill-rule="evenodd" d="M 67.14 21.27 L 73.56 21.27 L 73.56 19.66 L 67.14 19.66 L 67.14 21.27 Z M 67.14 21.27" />
    <path fill="#000000" fill-rule="evenodd" d="M 67.14 18.06 L 73.56 18.06 L 73.56 16.45 L 67.14 16.45 L 67.14 18.06 Z M 67.14 18.06" />
    <path fill="#000000" fill-rule="evenodd" d="M 67.14 14.85 L 73.56 14.85 L 73.56 13.24 L 67.14 13.24 L 67.14 14.85 Z M 67.14 14.85" />
    <path fill="#000000" fill-rule="evenodd" d="M 67.14 11.63 L 73.56 11.63 L 73.56 10.03 L 67.14 10.03 L 67.14 11.63 Z M 67.14 11.63" />
    <path fill="#000000" fill-rule="evenodd" d="M 67.14 8.42 L 73.56 8.42 L 73.56 6.81 L 67.14 6.81 L 67.14 8.42 Z M 67.14 8.42" />
    <path stroke-linejoin="miter" stroke-linecap="butt" stroke-width="2" stroke="#000000" fill="none" fill-rule="evenodd" d="M 76.78 24.75 L 76.78 6.55 C 76.72 5.37 75.92 3.6 73.83 3.6 L 64.52 3.6 L 61.3 0.39 L 56.43 0.39 L 56.43 2.26 C 56.43 2.53 56.27 2.53 56.16 2.53 L 53.86 2.53 C 53.81 2.48 53.7 2.42 53.54 2.26 L 53.49 2.21 L 51.67 0.39 L 41.17 0.39 C 40 0.39 38.23 1.19 38.23 3.33 L 38.23 24.75 C 38.23 24.86 38.23 26.04 39.09 26.89 C 39.41 27.27 40.1 27.7 41.17 27.7 L 73.83 27.7 C 75.01 27.7 76.78 26.89 76.78 24.75 L 76.78 24.75 Z M 76.78 24.75" />
</svg>