<?xml version="1.0" encoding="UTF-8" standalone="no"?>
<svg width="96px" height="81px" viewBox="0 0 96 81" version="1.1" xmlns="http://www.w3.org/2000/svg" xmlns:xlink="http://www.w3.org/1999/xlink">
    <!-- Generator: Sketch 3.8.1 (29687) - http://www.bohemiancoding.com/sketch -->
    <title>Page 1</title>
    <desc>Created with Sketch.</desc>
    <defs>
        <polygon id="path-1" points="0 79.8134634 94.6310244 79.8134634 94.6310244 0 0 0"></polygon>
    </defs>
    <g id="Welcome" stroke="none" stroke-width="1" fill="none" fill-rule="evenodd">
        <g id="Landing-Page-HD" transform="translate(-994.000000, -1003.000000)">
            <g id="Page-1" transform="translate(994.000000, 1003.000000)">
                <path d="M94.2407024,75.6731317 L94.2407024,50.9269854 C89.8313366,46.5164488 85.4215805,42.1066927 81.0122146,37.6984976 L41.7595317,37.6984976 C39.8102634,37.6984976 38.2172878,39.3863024 38.2172878,41.4487415 L38.2172878,75.6731317 C38.2172878,77.7344 39.8102634,79.4233756 41.7595317,79.4233756 L90.6984585,79.4233756 C92.6465561,79.4233756 94.2407024,77.7344 94.2407024,75.6731317 L94.2407024,75.6731317 Z" id="Stroke-1" stroke="#0088cc" stroke-width="2"></path>
                <mask id="mask-2" fill="white">
                    <use xlink:href="#path-1"></use>
                </mask>
                <g id="Clip-4"></g>
                <polygon id="Fill-3" fill="#0088cc" mask="url(#mask-2)" points="78.2423415 70.2821463 90.9002927 70.2821463 90.9002927 66.7644878 78.2423415 66.7644878"></polygon>
                <polygon id="Fill-5" fill="#0088cc" mask="url(#mask-2)" points="78.2423415 64.4218537 90.9002927 64.4218537 90.9002927 60.9065366 78.2423415 60.9065366"></polygon>
                <path d="M90.9003317,55.0448 L90.9003317,58.5601171 L78.2423805,58.5601171 L78.2423805,55.0448 L90.9003317,55.0448" id="Fill-6" fill="#0088cc" mask="url(#mask-2)"></path>
                <polygon id="Fill-7" fill="#0088cc" mask="url(#mask-2)" points="78.2423415 52.7012683 87.852878 52.7012683 87.852878 49.1836098 78.2423415 49.1836098"></polygon>
                <polygon id="Stroke-8" stroke="#0088cc" stroke-width="2" mask="url(#mask-2)" points="45.2481171 73.7975415 45.2481171 43.3230049 63.5318244 43.3230049 63.5318244 73.7963707 45.2481171 73.7963707"></polygon>
                <polygon id="Fill-9" fill="#0088cc" mask="url(#mask-2)" points="78.2423415 76.140878 90.9002927 76.140878 90.9002927 72.625561 78.2423415 72.625561"></polygon>
                <path d="M19.3205463,78.4391415 L10.4108878,78.4391415 C4.88581463,78.4391415 0.390204878,73.9443122 0.390204878,68.419239 L0.390204878,25.9669463 L29.3384976,25.9669463 L29.3384976,68.4204098 C29.3384976,73.9443122 24.844839,78.4391415 19.3205463,78.4391415 L19.3205463,78.4391415 Z" id="Stroke-10" stroke="#0088cc" stroke-width="2" mask="url(#mask-2)"></path>
                <path d="M26.4117073,22.790322 L2.96936585,22.790322 L2.96936585,0.390321951 L26.4117073,0.390321951 L26.4117073,22.790322 L26.4117073,22.790322 Z" id="Stroke-11" stroke="#0088cc" stroke-width="2" mask="url(#mask-2)"></path>
                <polygon id="Fill-12" fill="#0088cc" mask="url(#mask-2)" points="5.74087805 13.3896585 13.4122927 13.3896585 13.4122927 10.8323902 5.74087805 10.8323902"></polygon>
                <polygon id="Fill-13" fill="#0088cc" mask="url(#mask-2)" points="15.8985366 13.3896585 23.5656585 13.3896585 23.5656585 10.8323902 15.8985366 10.8323902"></polygon>
                <path d="M21.7244488,47.1432976 L21.7244488,43.4566634 L18.0389854,43.4566634 L18.0389854,47.1432976 L19.0614244,47.1432976 L19.0614244,50.056078 L15.5812293,53.5382244 L15.5812293,38.014322 L17.423961,38.014322 L14.7617171,32.6902244 L12.1002537,38.014322 L13.9429854,38.014322 L13.9429854,57.0199805 L10.6664976,53.7434927 L10.6664976,50.6293463 C11.2709854,50.3269073 11.6908878,49.7075902 11.6908878,48.9860293 C11.6908878,47.9678829 10.8663024,47.1432976 9.8481561,47.1432976 C8.83079024,47.1432976 8.00503415,47.9678829 8.00503415,48.9860293 C8.00503415,49.7068098 8.4241561,50.3269073 9.0286439,50.6293463 L9.0286439,54.3948098 L9.01537561,54.409639 L13.9429854,59.3380293 L13.9429854,65.2802732 C12.5330341,65.6459317 11.4860098,66.9157854 11.4860098,68.440078 C11.4860098,70.2500293 12.9533268,71.7165659 14.7617171,71.7165659 C16.5724488,71.7165659 18.0389854,70.2500293 18.0389854,68.440078 C18.0389854,66.9157854 16.9911805,65.6459317 15.5812293,65.2802732 L15.5812293,55.854322 L20.7141073,50.7206634 L20.699278,50.7073951 L20.699278,47.1432976 L21.7244488,47.1432976" id="Fill-14" fill="#0088cc" mask="url(#mask-2)"></path>
                <polygon id="Fill-15" fill="#0088cc" mask="url(#mask-2)" points="67.1402927 24.483122 73.564878 24.483122 73.564878 22.876878 67.1402927 22.876878"></polygon>
                <polygon id="Fill-16" fill="#0088cc" mask="url(#mask-2)" points="67.1402927 21.2706341 73.564878 21.2706341 73.564878 19.6643902 67.1402927 19.6643902"></polygon>
                <polygon id="Fill-17" fill="#0088cc" mask="url(#mask-2)" points="67.1402927 18.0585366 73.564878 18.0585366 73.564878 16.4522927 67.1402927 16.4522927"></polygon>
                <polygon id="Fill-18" fill="#0088cc" mask="url(#mask-2)" points="67.1402927 14.8460488 73.564878 14.8460488 73.564878 13.2398049 67.1402927 13.2398049"></polygon>
                <polygon id="Fill-19" fill="#0088cc" mask="url(#mask-2)" points="67.1402927 11.633561 73.564878 11.633561 73.564878 10.0273171 67.1402927 10.0273171"></polygon>
                <polygon id="Fill-20" fill="#0088cc" mask="url(#mask-2)" points="67.1402927 8.42107317 73.564878 8.42107317 73.564878 6.81482927 67.1402927 6.81482927"></polygon>
                <path d="M76.7773659,24.7507902 L76.7773659,6.54747317 C76.7239024,5.36971707 75.9207805,3.60269268 73.8325854,3.60269268 L64.5166829,3.60269268 L61.3045854,0.390204878 L56.4323902,0.390204878 L56.4323902,2.2641561 C56.4323902,2.53186341 56.2716098,2.53186341 56.1646829,2.53186341 L53.8626341,2.53186341 C53.8087805,2.4784 53.7018537,2.42493659 53.5414634,2.2641561 L53.4876098,2.21069268 L51.6675122,0.390204878 L41.1738537,0.390204878 C39.9957073,0.390204878 38.2290732,1.19332683 38.2290732,3.33498537 L38.2290732,24.7507902 C38.2290732,24.8577171 38.2290732,26.0358634 39.0856585,26.8924488 C39.4068293,27.2670829 40.1030244,27.6955707 41.1738537,27.6955707 L73.8325854,27.6955707 C75.0107317,27.6955707 76.7773659,26.8924488 76.7773659,24.7507902 L76.7773659,24.7507902 Z" id="Stroke-21" stroke="#0088cc" stroke-width="2" mask="url(#mask-2)"></path>
            </g>
        </g>
    </g>
</svg>