<?xml version="1.0" encoding="utf-8"?>
<!-- Generator: Avocode 2.6.0 - http://avocode.com -->
<svg height="40" width="122" xmlns:xlink="http://www.w3.org/1999/xlink" xmlns="http://www.w3.org/2000/svg" viewBox="0 0 122 40">
    <defs>
        <linearGradient y2="100%" y1="0%" x2="0%" x1="0%" id="gradient-1">
            <stop stop-color="#257cb0" offset="0%" />
            <stop stop-color="#4a93b5" offset="29%" />
            <stop stop-color="#78bcbb" offset="77%" />
            <stop stop-color="#89cfbd" offset="100%" />
        </linearGradient>
        <linearGradient y2="0%" y1="0%" x2="100%" x1="0%" id="gradient-2">
            <stop stop-color="#52c1ad" offset="0%" />
            <stop stop-color="#dee89a" offset="100%" />
        </linearGradient>
        <linearGradient y2="100%" y1="0%" x2="0%" x1="0%" id="gradient-3">
            <stop stop-color="#ec413d" offset="0%" />
            <stop stop-color="#da4452" offset="17%" />
            <stop stop-color="#b0487a" offset="57%" />
            <stop stop-color="#954a92" offset="86%" />
            <stop stop-color="#8a4a9d" offset="100%" />
        </linearGradient>
        <linearGradient y2="100%" y1="0%" x2="0%" x1="0%" id="gradient-4">
            <stop stop-color="#f58879" offset="0%" />
            <stop stop-color="#f69079" offset="12%" />
            <stop stop-color="#fcb877" offset="71%" />
            <stop stop-color="#fec874" offset="100%" />
        </linearGradient>
    </defs>
    <path fill="#666666" fill-rule="evenodd" d="M 121.81 34.53 C 121.81 37.49 119.4 39.9 116.44 39.9 L 5.53 39.9 C 2.57 39.9 0.16 37.49 0.16 34.53 L 0.16 5.47 C 0.16 2.51 2.57 0.1 5.53 0.1 L 116.46 0.1 C 119.42 0.1 121.83 2.51 121.83 5.47 L 121.81 34.53 L 121.81 34.53 L 121.81 34.53 Z M 121.81 34.53" />
    <path fill="url(#gradient-1)" fill-rule="evenodd" d="M 9.27 7.76 L 9.27 21.23 L 9.27 34.71 L 22.87 21.23 L 9.27 7.76 Z M 9.27 7.76" />
    <path fill="url(#gradient-2)" fill-rule="evenodd" d="M 26.51 17.61 L 21.03 14.45 L 9.27 7.66 L 9.27 7.76 L 22.87 21.23 L 26.51 17.61 Z M 26.51 17.61" />
    <path fill="url(#gradient-3)" fill-rule="evenodd" d="M 9.27 34.71 L 9.27 34.81 L 21.03 28.02 L 26.51 24.86 L 22.87 21.23 L 9.27 34.71 Z M 9.27 34.71" />
    <path fill="url(#gradient-4)" fill-rule="evenodd" d="M 26.51 17.61 L 22.87 21.23 L 26.51 24.86 L 32.78 21.23 L 26.51 17.61 Z M 26.51 17.61" />
    <path fill="#f9f9f9" fill-rule="evenodd" d="M 94.85 26.51 C 94.33 26.51 93.87 26.41 93.45 26.23 C 93.03 26.05 92.68 25.75 92.4 25.35 L 92.32 25.35 C 92.38 25.81 92.4 26.25 92.4 26.65 L 92.4 29.87 L 91.2 29.87 L 91.2 18.51 L 92.18 18.51 L 92.34 19.58 L 92.4 19.58 C 92.7 19.14 93.05 18.85 93.47 18.65 C 93.87 18.45 94.35 18.37 94.87 18.37 C 95.9 18.37 96.72 18.73 97.27 19.44 C 97.83 20.16 98.13 21.15 98.13 22.43 C 98.13 23.72 97.85 24.72 97.27 25.43 C 96.66 26.15 95.86 26.51 94.85 26.51 L 94.85 26.51 Z M 94.67 19.38 C 93.87 19.38 93.29 19.6 92.94 20.04 C 92.58 20.48 92.4 21.19 92.38 22.15 L 92.38 22.41 C 92.38 23.5 92.56 24.3 92.94 24.78 C 93.29 25.25 93.89 25.49 94.71 25.49 C 95.38 25.49 95.92 25.21 96.3 24.68 C 96.68 24.12 96.88 23.36 96.88 22.41 C 96.88 21.43 96.68 20.68 96.3 20.16 C 95.9 19.66 95.36 19.38 94.67 19.38 L 94.67 19.38 Z M 94.67 19.38" />
    <path fill="#f9f9f9" fill-rule="evenodd" d="M 100.84 26.37 L 99.64 26.37 L 99.64 15.24 L 100.84 15.24 L 100.84 26.37 L 100.84 26.37 Z M 100.84 26.37" />
    <path fill="#f9f9f9" fill-rule="evenodd" d="M 107.66 26.37 L 107.42 25.25 L 107.36 25.25 C 106.97 25.75 106.59 26.07 106.19 26.25 C 105.79 26.43 105.31 26.51 104.74 26.51 C 103.96 26.51 103.34 26.31 102.91 25.91 C 102.47 25.51 102.25 24.94 102.25 24.2 C 102.25 22.61 103.52 21.79 106.05 21.71 L 107.38 21.67 L 107.38 21.19 C 107.38 20.58 107.24 20.12 106.99 19.84 C 106.73 19.54 106.29 19.4 105.71 19.4 C 105.05 19.4 104.32 19.6 103.5 20 L 103.14 19.08 C 103.52 18.87 103.96 18.71 104.42 18.59 C 104.88 18.47 105.33 18.41 105.81 18.41 C 106.75 18.41 107.44 18.61 107.88 19.02 C 108.34 19.44 108.56 20.1 108.56 21.01 L 108.56 26.37 L 107.66 26.37 L 107.66 26.37 L 107.66 26.37 Z M 104.98 25.53 C 105.71 25.53 106.29 25.33 106.73 24.92 C 107.14 24.52 107.36 23.94 107.36 23.2 L 107.36 22.49 L 106.17 22.53 C 105.23 22.57 104.54 22.71 104.12 22.97 C 103.7 23.22 103.5 23.62 103.5 24.18 C 103.5 24.62 103.64 24.94 103.9 25.15 C 104.16 25.41 104.52 25.53 104.98 25.53 L 104.98 25.53 Z M 104.98 25.53" />
    <path fill="#f9f9f9" fill-rule="evenodd" d="M 109.23 18.53 L 110.51 18.53 L 112.22 23 C 112.6 24.02 112.84 24.76 112.92 25.21 L 112.98 25.21 C 113.03 24.98 113.17 24.56 113.37 23.96 C 113.57 23.36 114.21 21.55 115.32 18.53 L 116.6 18.53 L 113.23 27.46 C 112.9 28.34 112.52 28.98 112.06 29.33 C 111.62 29.71 111.06 29.89 110.43 29.89 C 110.07 29.89 109.71 29.85 109.35 29.77 L 109.35 28.82 C 109.61 28.88 109.91 28.9 110.23 28.9 C 111.04 28.9 111.62 28.44 111.98 27.52 L 112.42 26.41 L 109.23 18.53 L 109.23 18.53 Z M 109.23 18.53" />
    <path fill="#f9f9f9" fill-rule="evenodd" d="M 72.84 19.26 C 73.21 19.58 73.99 20.24 73.99 21.47 C 73.99 22.69 73.29 23.26 72.62 23.8 C 72.4 24.02 72.16 24.24 72.16 24.6 C 72.16 24.96 72.4 25.15 72.58 25.29 L 73.17 25.75 C 73.89 26.35 74.55 26.93 74.55 28.04 C 74.55 29.57 73.05 31.14 70.23 31.14 C 67.86 31.14 66.71 30.01 66.71 28.8 C 66.71 28.2 67 27.36 67.96 26.79 C 68.98 26.17 70.35 26.09 71.08 26.03 C 70.85 25.73 70.59 25.43 70.59 24.92 C 70.59 24.64 70.67 24.48 70.75 24.28 C 70.57 24.3 70.39 24.32 70.23 24.32 C 68.5 24.32 67.5 23.02 67.5 21.75 C 67.5 21 67.84 20.16 68.56 19.56 C 69.49 18.79 70.61 18.67 71.5 18.67 L 74.89 18.67 L 73.83 19.26 L 72.84 19.26 L 72.84 19.26 L 72.84 19.26 Z M 71.68 26.53 C 71.54 26.51 71.46 26.51 71.3 26.51 C 71.16 26.51 70.27 26.55 69.57 26.77 C 69.21 26.91 68.16 27.28 68.16 28.46 C 68.16 29.61 69.29 30.47 71.04 30.47 C 72.62 30.47 73.45 29.71 73.45 28.7 C 73.47 27.86 72.94 27.42 71.68 26.53 L 71.68 26.53 Z M 72.16 23.42 C 72.54 23.04 72.58 22.53 72.58 22.23 C 72.58 21.05 71.88 19.2 70.51 19.2 C 70.09 19.2 69.63 19.42 69.35 19.74 C 69.07 20.08 69 20.54 69 20.96 C 69 22.05 69.63 23.88 71.04 23.88 C 71.44 23.88 71.9 23.68 72.16 23.42 L 72.16 23.42 Z M 72.16 23.42" />
    <path fill="#f9f9f9" fill-rule="evenodd" d="M 62.53 26.27 C 59.92 26.27 58.53 24.24 58.53 22.41 C 58.53 20.26 60.28 18.43 62.77 18.43 C 65.17 18.43 66.69 20.32 66.69 22.29 C 66.69 24.22 65.19 26.27 62.53 26.27 L 62.53 26.27 Z M 64.58 24.96 C 64.98 24.44 65.07 23.78 65.07 23.14 C 65.07 21.71 64.38 18.95 62.35 18.95 C 61.81 18.95 61.27 19.16 60.88 19.5 C 60.24 20.08 60.12 20.8 60.12 21.49 C 60.12 23.1 60.92 25.77 62.91 25.77 C 63.54 25.77 64.2 25.47 64.58 24.96 L 64.58 24.96 Z M 64.58 24.96" />
    <path fill="#f9f9f9" fill-rule="evenodd" d="M 53.65 26.27 C 51.04 26.27 49.65 24.24 49.65 22.41 C 49.65 20.26 51.4 18.43 53.89 18.43 C 56.3 18.43 57.81 20.32 57.81 22.29 C 57.81 24.22 56.32 26.27 53.65 26.27 L 53.65 26.27 Z M 55.7 24.96 C 56.1 24.44 56.2 23.78 56.2 23.14 C 56.2 21.71 55.5 18.95 53.47 18.95 C 52.94 18.95 52.4 19.16 52 19.5 C 51.36 20.08 51.24 20.8 51.24 21.49 C 51.24 23.1 52.04 25.77 54.03 25.77 C 54.67 25.77 55.32 25.47 55.7 24.96 L 55.7 24.96 Z M 55.7 24.96" />
    <path fill="#f9f9f9" fill-rule="evenodd" d="M 48.4 26.01 L 46.05 26.55 C 45.09 26.69 44.24 26.83 43.34 26.83 C 38.81 26.83 37.07 23.48 37.07 20.88 C 37.07 17.69 39.52 14.73 43.72 14.73 C 44.62 14.73 45.47 14.87 46.23 15.06 C 47.46 15.4 48.04 15.84 48.4 16.08 L 47.02 17.37 L 46.45 17.51 L 46.87 16.86 C 46.31 16.32 45.29 15.3 43.34 15.3 C 40.74 15.3 38.79 17.27 38.79 20.16 C 38.79 23.24 41.01 26.17 44.62 26.17 C 45.67 26.17 46.21 25.95 46.71 25.75 L 46.71 23.1 L 44.22 23.24 L 45.53 22.53 L 49.01 22.53 L 48.6 22.95 C 48.48 23.04 48.46 23.08 48.44 23.2 C 48.42 23.34 48.4 23.82 48.4 24 L 48.4 26.01 L 48.4 26.01 L 48.4 26.01 Z M 48.4 26.01" />
    <path fill="#f9f9f9" fill-rule="evenodd" d="M 78.05 25.53 C 77.51 25.49 77.39 25.39 77.39 24.74 L 77.39 24.56 L 77.39 15.42 L 77.39 15.32 C 77.45 14.75 77.63 14.65 78.13 14.35 L 75.78 14.35 L 74.55 14.95 L 75.8 14.95 L 75.8 14.95 L 75.8 14.95 L 75.8 24.56 L 75.8 25.09 C 75.8 25.43 75.74 25.47 75.36 25.97 L 78.27 25.97 L 78.89 25.61 C 78.61 25.59 78.33 25.57 78.05 25.53 L 78.05 25.53 Z M 78.05 25.53" />
    <path fill="#f9f9f9" fill-rule="evenodd" d="M 84.74 25.69 C 84.56 25.79 84.38 25.91 84.2 25.99 C 83.66 26.23 83.1 26.31 82.61 26.31 C 82.09 26.31 81.27 26.27 80.44 25.67 C 79.28 24.86 78.77 23.44 78.77 22.23 C 78.77 19.7 80.82 18.45 82.51 18.45 C 83.1 18.45 83.7 18.59 84.2 18.91 C 85.01 19.44 85.23 20.14 85.33 20.52 L 81.49 22.07 L 80.24 22.17 C 80.66 24.24 82.05 25.45 83.6 25.45 C 84.44 25.45 85.03 25.15 85.59 24.88 L 84.74 25.69 L 84.74 25.69 Z M 83.2 20.82 C 83.52 20.7 83.68 20.6 83.68 20.38 C 83.68 19.72 82.95 18.97 82.07 18.97 C 81.41 18.97 80.2 19.46 80.2 21.23 C 80.2 21.51 80.24 21.81 80.24 22.11 L 83.2 20.82 L 83.2 20.82 Z M 83.2 20.82" />
    <path fill="#f9f9f9" fill-rule="evenodd" d="M 86.33 18.55 L 86.33 19.62 L 86.19 19.62 L 86.19 18.55 L 85.83 18.55 L 85.83 18.43 L 86.67 18.43 L 86.67 18.55 L 86.33 18.55 L 86.33 18.55 Z M 86.33 18.55" />
    <path fill="#f9f9f9" fill-rule="evenodd" d="M 87.78 19.62 L 87.78 18.53 L 87.78 18.53 L 87.44 19.62 L 87.34 19.62 L 87 18.53 L 87 18.53 L 87 19.62 L 86.89 19.62 L 86.89 18.43 L 87.08 18.43 L 87.38 19.38 L 87.38 19.38 L 87.68 18.43 L 87.88 18.43 L 87.88 19.62 L 87.78 19.62 L 87.78 19.62 Z M 87.78 19.62" />
    <path fill="#f9f9fa" fill-rule="evenodd" d="M 40.34 11.52 L 39.52 11.52 C 39.52 11.4 39.44 11.08 39.28 10.57 L 38.11 10.57 C 37.95 11.08 37.87 11.4 37.87 11.52 L 37.09 11.52 C 37.09 11.46 37.29 10.91 37.69 9.89 C 38.09 8.88 38.29 8.3 38.29 8.2 L 39.26 8.2 C 39.26 8.3 39.44 8.86 39.8 9.87 C 40.16 10.89 40.34 11.42 40.34 11.52 L 40.34 11.52 Z M 39.16 10.07 C 38.87 9.19 38.73 8.72 38.73 8.64 L 38.69 8.64 C 38.69 8.7 38.53 9.17 38.23 10.07 L 39.16 10.07 L 39.16 10.07 Z M 39.16 10.07" />
    <path fill="#f9f9fa" fill-rule="evenodd" d="M 43.62 11.52 L 42.99 11.52 C 42.99 11.44 42.75 11.08 42.29 10.41 C 41.79 9.71 41.51 9.21 41.45 8.96 L 41.41 8.96 C 41.45 9.33 41.47 9.67 41.47 9.97 C 41.47 10.39 41.49 10.91 41.51 11.5 L 40.88 11.5 C 40.9 10.97 40.92 10.39 40.92 9.77 C 40.92 9.15 40.9 8.62 40.88 8.18 L 41.63 8.18 C 41.63 8.28 41.85 8.64 42.27 9.25 C 42.73 9.93 42.97 10.37 43.04 10.61 L 43.08 10.61 C 43.04 10.23 43.02 9.89 43.02 9.59 C 43.02 9.13 43 8.66 42.99 8.18 L 43.62 8.18 C 43.6 8.6 43.58 9.13 43.58 9.77 C 43.6 10.43 43.6 11 43.62 11.52 L 43.62 11.52 Z M 43.62 11.52" />
    <path fill="#f9f9fa" fill-rule="evenodd" d="M 47.34 9.75 C 47.34 10.23 47.18 10.67 46.89 11.02 C 46.57 11.38 46.15 11.56 45.59 11.56 C 45.33 11.56 45 11.54 44.56 11.52 C 44.58 11 44.6 10.43 44.6 9.79 C 44.6 9.17 44.58 8.64 44.56 8.2 L 45 8.2 L 45.31 8.2 L 45.59 8.2 C 46.21 8.2 46.65 8.36 46.93 8.66 C 47.2 8.96 47.34 9.31 47.34 9.75 L 47.34 9.75 Z M 46.65 9.85 C 46.65 9.53 46.55 9.25 46.37 9.01 C 46.17 8.8 45.89 8.68 45.49 8.68 C 45.41 8.68 45.31 8.68 45.19 8.7 C 45.21 9.03 45.21 9.39 45.21 9.77 C 45.21 10.17 45.21 10.59 45.23 10.99 C 45.35 11 45.45 11.02 45.57 11.02 C 45.93 11.02 46.21 10.91 46.39 10.69 C 46.55 10.47 46.65 10.19 46.65 9.85 L 46.65 9.85 Z M 46.65 9.85" />
    <path fill="#f9f9fa" fill-rule="evenodd" d="M 50.75 11.52 L 49.99 11.52 C 49.79 10.93 49.63 10.55 49.53 10.41 C 49.43 10.27 49.25 10.19 49.01 10.19 L 48.74 10.19 C 48.74 10.63 48.74 11.06 48.76 11.52 L 48.04 11.52 C 48.06 11 48.08 10.43 48.08 9.79 C 48.08 9.17 48.06 8.64 48.04 8.2 L 48.48 8.2 L 48.8 8.2 L 49.25 8.2 C 50.03 8.2 50.43 8.46 50.43 9 C 50.43 9.41 50.21 9.71 49.75 9.89 L 49.75 9.93 C 49.93 9.97 50.07 10.11 50.21 10.33 C 50.35 10.53 50.53 10.93 50.75 11.52 L 50.75 11.52 Z M 49.79 9.17 C 49.79 8.84 49.57 8.66 49.13 8.66 C 48.98 8.66 48.84 8.68 48.72 8.7 C 48.74 8.96 48.74 9.31 48.74 9.73 L 48.98 9.73 C 49.51 9.73 49.79 9.55 49.79 9.17 L 49.79 9.17 Z M 49.79 9.17" />
    <path fill="#f9f9fa" fill-rule="evenodd" d="M 54.41 9.79 C 54.41 10.31 54.25 10.75 53.93 11.08 C 53.61 11.42 53.21 11.6 52.74 11.6 C 52.28 11.6 51.9 11.44 51.6 11.12 C 51.3 10.81 51.14 10.41 51.14 9.91 C 51.14 9.39 51.3 8.96 51.62 8.62 C 51.94 8.28 52.34 8.1 52.82 8.1 C 53.27 8.1 53.65 8.26 53.95 8.58 C 54.27 8.92 54.41 9.31 54.41 9.79 L 54.41 9.79 Z M 53.71 9.87 C 53.71 9.51 53.61 9.23 53.43 9 C 53.25 8.78 53.03 8.66 52.76 8.66 C 52.5 8.66 52.3 8.78 52.12 9 C 51.94 9.21 51.86 9.49 51.86 9.85 C 51.86 10.21 51.96 10.49 52.14 10.71 C 52.32 10.93 52.54 11.04 52.82 11.04 C 53.05 11.04 53.27 10.93 53.45 10.71 C 53.61 10.49 53.71 10.21 53.71 9.87 L 53.71 9.87 Z M 53.71 9.87" />
    <path fill="#f9f9fa" fill-rule="evenodd" d="M 55.86 11.52 L 55.14 11.52 C 55.16 10.99 55.18 10.41 55.18 9.79 C 55.18 9.17 55.16 8.64 55.14 8.2 L 55.86 8.2 C 55.84 8.64 55.82 9.15 55.82 9.79 C 55.82 10.43 55.84 11 55.86 11.52 L 55.86 11.52 Z M 55.86 11.52" />
    <path fill="#f9f9fa" fill-rule="evenodd" d="M 59.56 9.75 C 59.56 10.23 59.4 10.67 59.1 11.02 C 58.79 11.38 58.37 11.56 57.81 11.56 C 57.55 11.56 57.21 11.54 56.78 11.52 C 56.8 11 56.82 10.43 56.82 9.79 C 56.82 9.17 56.8 8.64 56.78 8.2 L 57.21 8.2 L 57.53 8.2 L 57.81 8.2 C 58.43 8.2 58.87 8.36 59.14 8.66 C 59.42 8.96 59.56 9.31 59.56 9.75 L 59.56 9.75 Z M 58.87 9.85 C 58.87 9.53 58.77 9.25 58.59 9.01 C 58.39 8.8 58.11 8.68 57.71 8.68 C 57.63 8.68 57.53 8.68 57.41 8.7 C 57.43 9.03 57.43 9.39 57.43 9.77 C 57.43 10.17 57.43 10.59 57.45 10.99 C 57.57 11 57.67 11.02 57.79 11.02 C 58.15 11.02 58.43 10.91 58.61 10.69 C 58.77 10.47 58.87 10.19 58.87 9.85 L 58.87 9.85 Z M 58.87 9.85" />
    <path fill="#f9f9fa" fill-rule="evenodd" d="M 64.48 11.52 L 63.66 11.52 C 63.66 11.4 63.58 11.08 63.42 10.57 L 62.25 10.57 C 62.09 11.08 62.01 11.4 62.01 11.52 L 61.23 11.52 C 61.23 11.46 61.43 10.91 61.83 9.89 C 62.23 8.88 62.43 8.3 62.43 8.2 L 63.4 8.2 C 63.4 8.3 63.58 8.86 63.94 9.87 C 64.3 10.89 64.48 11.42 64.48 11.52 L 64.48 11.52 Z M 63.3 10.07 C 63 9.19 62.87 8.72 62.87 8.64 L 62.83 8.64 C 62.83 8.7 62.67 9.17 62.37 10.07 L 63.3 10.07 L 63.3 10.07 Z M 63.3 10.07" />
    <path fill="#f9f9fa" fill-rule="evenodd" d="M 67.46 9.07 C 67.46 9.47 67.3 9.79 67 9.97 C 66.71 10.15 66.33 10.27 65.89 10.27 L 65.71 10.27 C 65.71 10.59 65.71 11 65.73 11.54 L 65.01 11.54 C 65.03 11.04 65.05 10.47 65.05 9.81 C 65.05 9.19 65.03 8.68 65.01 8.22 L 65.45 8.22 L 65.81 8.22 L 66.27 8.22 C 66.59 8.22 66.87 8.3 67.08 8.44 C 67.34 8.54 67.46 8.78 67.46 9.07 L 67.46 9.07 Z M 66.81 9.21 C 66.81 8.86 66.57 8.68 66.09 8.68 C 65.97 8.68 65.83 8.7 65.71 8.72 C 65.73 9.03 65.73 9.39 65.73 9.81 L 65.87 9.81 C 66.49 9.79 66.81 9.59 66.81 9.21 L 66.81 9.21 Z M 66.81 9.21" />
    <path fill="#f9f9fa" fill-rule="evenodd" d="M 70.53 9.07 C 70.53 9.47 70.37 9.79 70.07 9.97 C 69.77 10.17 69.39 10.27 68.96 10.27 L 68.78 10.27 C 68.78 10.59 68.78 11 68.8 11.54 L 68.08 11.54 C 68.1 11.04 68.12 10.47 68.12 9.81 C 68.12 9.19 68.1 8.68 68.08 8.22 L 68.52 8.22 L 68.88 8.22 L 69.33 8.22 C 69.65 8.22 69.93 8.3 70.15 8.44 C 70.41 8.54 70.53 8.78 70.53 9.07 L 70.53 9.07 Z M 69.87 9.21 C 69.87 8.86 69.63 8.68 69.15 8.68 C 69.03 8.68 68.9 8.7 68.78 8.72 C 68.8 9.03 68.8 9.39 68.8 9.81 L 68.94 9.81 C 69.55 9.79 69.87 9.59 69.87 9.21 L 69.87 9.21 Z M 69.87 9.21" />
    <path fill="#f9f9fa" fill-rule="evenodd" d="M 75.54 9.79 C 75.54 10.31 75.38 10.75 75.06 11.08 C 74.75 11.42 74.35 11.6 73.87 11.6 C 73.41 11.6 73.03 11.44 72.74 11.12 C 72.44 10.81 72.28 10.41 72.28 9.91 C 72.28 9.39 72.44 8.96 72.76 8.62 C 73.07 8.28 73.47 8.1 73.95 8.1 C 74.41 8.1 74.79 8.26 75.08 8.58 C 75.38 8.92 75.54 9.31 75.54 9.79 L 75.54 9.79 Z M 74.83 9.87 C 74.83 9.51 74.73 9.23 74.55 9 C 74.37 8.78 74.15 8.66 73.87 8.66 C 73.61 8.66 73.41 8.78 73.23 9 C 73.05 9.21 72.98 9.49 72.98 9.85 C 72.98 10.21 73.07 10.49 73.25 10.71 C 73.43 10.93 73.65 11.04 73.93 11.04 C 74.19 11.04 74.39 10.93 74.57 10.71 C 74.75 10.49 74.83 10.21 74.83 9.87 L 74.83 9.87 Z M 74.83 9.87" />
    <path fill="#f9f9fa" fill-rule="evenodd" d="M 79 11.52 L 78.37 11.52 C 78.37 11.44 78.13 11.08 77.67 10.41 C 77.17 9.71 76.9 9.21 76.84 8.96 L 76.8 8.96 C 76.84 9.33 76.86 9.67 76.86 9.97 C 76.86 10.39 76.88 10.91 76.9 11.5 L 76.26 11.5 C 76.28 10.97 76.3 10.39 76.3 9.77 C 76.3 9.15 76.28 8.62 76.26 8.18 L 77.01 8.18 C 77.01 8.28 77.23 8.64 77.65 9.25 C 78.11 9.93 78.35 10.37 78.43 10.61 L 78.47 10.61 C 78.43 10.23 78.41 9.89 78.41 9.59 C 78.41 9.13 78.39 8.66 78.37 8.18 L 79 8.18 C 78.99 8.6 78.97 9.13 78.97 9.77 C 78.97 10.43 78.97 11 79 11.52 L 79 11.52 Z M 79 11.52" />
</svg>