<?xml version="1.0" encoding="utf-8"?>
<!-- Generator: Avocode 2.6.0 - http://avocode.com -->
<svg height="82" width="66" xmlns:xlink="http://www.w3.org/1999/xlink" xmlns="http://www.w3.org/2000/svg" viewBox="0 0 66 82">
    <path fill="#000000" fill-rule="evenodd" d="M 33.18 43.77 C 28.5 43.77 24.71 39.98 24.71 35.3 C 24.71 30.63 28.5 26.84 33.18 26.84 C 37.86 26.84 41.65 30.63 41.65 35.3 C 41.65 39.98 37.85 43.77 33.18 43.77 M 33.04 23.7 C 26.63 23.7 21.44 28.89 21.44 35.3 C 21.44 41.71 26.63 46.91 33.04 46.91 C 39.45 46.91 44.65 41.71 44.65 35.3 C 44.65 28.89 39.45 23.7 33.04 23.7" />
    <path fill="#000000" fill-rule="evenodd" d="M 33.18 32.44 C 34.76 32.44 36.05 33.72 36.05 35.3 C 36.05 36.89 34.76 38.17 33.18 38.17 C 31.6 38.17 30.31 36.89 30.31 35.3 C 30.31 33.72 31.6 32.44 33.18 32.44" />
    <path fill="#000000" fill-rule="evenodd" d="M 27.78 57.13 C 27.77 57.14 25.6 58.4 25.35 58.55 L 24.6 59.01 C 21.92 60.65 20.74 61.47 20.74 63.84 C 20.74 66.93 23.25 69.44 26.34 69.44 C 28.78 69.44 29.5 68.37 31.24 65.79 C 31.45 65.48 31.67 65.15 31.91 64.81 C 32.08 64.56 33.33 62.68 33.33 62.68 L 42.11 48.71 L 27.78 57.13 Z M 27.78 57.13" />
    <path stroke-linejoin="miter" stroke-linecap="butt" stroke-width="2" stroke="#000000" fill="none" fill-rule="evenodd" d="M 35.62 64.16 C 35.6 64.19 34.33 66.1 34.15 66.36 C 33.93 66.69 33.71 67.01 33.51 67.31 C 31.68 70.03 30.24 72.17 26.34 72.17 C 21.75 72.17 18.01 68.43 18.01 63.84 C 18.02 60.79 19.47 59.18 21.34 57.86 C 13.16 53.63 7.56 45.11 7.56 35.27 C 7.56 21.22 18.95 9.83 33 9.83 C 47.05 9.83 58.44 21.22 58.44 35.27 C 58.44 47.56 49.71 57.8 38.12 60.18 L 35.62 64.16 L 35.62 64.16 Z M 35.62 64.16" />
    <path fill="#000000" fill-rule="evenodd" d="M 7.3 11.58 C 8.9 11.58 10.19 10.3 10.19 8.71 C 10.19 8.22 10.06 7.77 9.85 7.37 C 9.36 6.46 8.41 5.84 7.3 5.84 C 6.18 5.84 5.22 6.48 4.74 7.41 C 4.54 7.81 4.41 8.24 4.41 8.71 C 4.41 10.3 5.71 11.58 7.3 11.58" />
    <path fill="#000000" fill-rule="evenodd" d="M 7.3 76.16 C 8.47 76.16 9.47 75.47 9.92 74.49 C 10.09 74.12 10.19 73.72 10.19 73.29 C 10.19 71.7 8.9 70.42 7.3 70.42 C 5.71 70.42 4.41 71.7 4.41 73.29 C 4.41 73.7 4.5 74.09 4.66 74.44 C 5.11 75.45 6.12 76.16 7.3 76.16" />
    <path fill="#000000" fill-rule="evenodd" d="M 58.7 11.58 C 60.29 11.58 61.59 10.3 61.59 8.71 C 61.59 8.22 61.45 7.77 61.24 7.37 C 60.75 6.46 59.8 5.84 58.7 5.84 C 57.57 5.84 56.61 6.48 56.13 7.41 C 55.93 7.81 55.81 8.24 55.81 8.71 C 55.81 10.3 57.1 11.58 58.7 11.58" />
    <path fill="#000000" fill-rule="evenodd" d="M 58.7 76.16 C 59.86 76.16 60.86 75.47 61.32 74.49 C 61.49 74.12 61.59 73.72 61.59 73.29 C 61.59 71.7 60.29 70.42 58.7 70.42 C 57.1 70.42 55.81 71.7 55.81 73.29 C 55.81 73.7 55.9 74.09 56.05 74.44 C 56.5 75.45 57.51 76.16 58.7 76.16" />
    <path stroke-linejoin="miter" stroke-linecap="butt" stroke-width="2" stroke="#000000" fill="none" fill-rule="evenodd" d="M 4.88 1 L 61.12 1 C 63.26 1 65 2.73 65 4.86 L 65 77.14 C 65 79.27 63.26 81 61.12 81 L 4.88 81 C 2.74 81 1 79.27 1 77.14 L 1 4.86 C 1 2.73 2.74 1 4.88 1 L 4.88 1 Z M 4.88 1" />
</svg>