<?xml version="1.0" encoding="UTF-8" standalone="no"?>
<svg width="66px" height="82px" viewBox="0 0 66 82" version="1.1" xmlns="http://www.w3.org/2000/svg" xmlns:xlink="http://www.w3.org/1999/xlink">
    <!-- Generator: Sketch 3.8.1 (29687) - http://www.bohemiancoding.com/sketch -->
    <title>Page 1</title>
    <desc>Created with Sketch.</desc>
    <defs></defs>
    <g id="Welcome" stroke="none" stroke-width="1" fill="none" fill-rule="evenodd">
        <g id="Landing-Page-HD" transform="translate(-357.000000, -1002.000000)">
            <g id="Page-1" transform="translate(358.000000, 1003.000000)">
                <path d="M32.18044,42.76772 C27.50484,42.76772 23.71484,38.97852 23.71484,34.30332 C23.71484,29.62772 27.50484,25.83772 32.18044,25.83772 C36.85604,25.83772 40.64604,29.62772 40.64604,34.30332 C40.64604,38.97852 36.85484,42.76772 32.18044,42.76772 M32.04324,22.69772 C25.63404,22.69772 20.43764,27.89412 20.43764,34.30412 C20.43764,40.71332 25.63404,45.90972 32.04324,45.90972 C38.45324,45.90972 43.64964,40.71332 43.64964,34.30412 C43.64964,27.89412 38.45324,22.69772 32.04324,22.69772" id="Fill-1" fill="#0088cc"></path>
                <path d="M32.18044,31.4368 C33.76404,31.4368 35.04764,32.7204 35.04764,34.304 C35.04764,35.8876 33.76404,37.1712 32.18044,37.1712 C30.59684,37.1712 29.31324,35.8876 29.31324,34.304 C29.31324,32.7204 30.59684,31.4368 32.18044,31.4368" id="Fill-3" fill="#0088cc"></path>
                <path d="M26.78408,56.13228 C26.77488,56.13788 24.60208,57.39508 24.35408,57.54868 L23.60128,58.01148 C20.92488,59.64508 19.74128,60.46668 19.74128,62.84148 C19.74128,65.92868 22.25408,68.44148 25.34128,68.44148 C27.78488,68.44148 28.50408,67.37228 30.24328,64.78948 C30.45328,64.47668 30.67328,64.15028 30.90688,63.80948 C31.07968,63.55948 32.32848,61.67668 32.32848,61.67668 L41.10848,47.70508 L26.78408,56.13228 Z" id="Fill-5" fill="#0088cc"></path>
                <path d="M34.61956,63.15772 C34.60036,63.18692 33.32876,65.10332 33.15396,65.35692 C32.92596,65.68852 32.71036,66.00852 32.50516,66.31332 C30.67876,69.02572 29.23596,71.16972 25.34156,71.16972 C20.74956,71.16972 17.01396,67.43412 17.01396,62.84212 C17.01516,59.79332 18.47036,58.17772 20.33676,56.86492 C12.15876,52.63492 6.56236,44.11052 6.56236,34.26772 C6.56236,20.21852 17.95156,8.83052 32.00036,8.83052 C46.04956,8.83052 57.43756,20.21852 57.43756,34.26772 C57.43756,46.56052 48.71316,56.80412 37.12156,59.17572 L34.61956,63.15772 L34.61956,63.15772 Z" id="Stroke-7" stroke="#0088cc" stroke-width="2"></path>
                <path d="M6.30304,10.58456 C7.89904,10.58456 9.19384,9.29776 9.19384,7.71136 C9.19384,7.22456 9.05984,6.77336 8.84664,6.37256 C8.36064,5.46376 7.41024,4.83696 6.30304,4.83696 C5.17824,4.83696 4.21544,5.48176 3.73704,6.41416 C3.53664,6.80536 3.41224,7.24096 3.41224,7.71136 C3.41224,9.29776 4.70704,10.58456 6.30304,10.58456" id="Fill-9" fill="#0088cc"></path>
                <path d="M6.30304,75.16288 C7.46864,75.16288 8.46624,74.47368 8.92424,73.48568 C9.09384,73.12048 9.19384,72.71768 9.19384,72.28968 C9.19384,70.70328 7.89904,69.41648 6.30304,69.41648 C4.70704,69.41648 3.41224,70.70328 3.41224,72.28968 C3.41224,72.70128 3.50264,73.08968 3.65864,73.44248 C4.10664,74.45448 5.11984,75.16288 6.30304,75.16288" id="Fill-11" fill="#0088cc"></path>
                <path d="M57.69696,10.58456 C59.29296,10.58456 60.58776,9.29776 60.58776,7.71136 C60.58776,7.22456 60.45376,6.77336 60.24056,6.37256 C59.75456,5.46376 58.80416,4.83696 57.69696,4.83696 C56.57216,4.83696 55.60936,5.48176 55.13096,6.41416 C54.93056,6.80536 54.80616,7.24096 54.80616,7.71136 C54.80616,9.29776 56.10096,10.58456 57.69696,10.58456" id="Fill-13" fill="#0088cc"></path>
                <path d="M57.69696,75.16288 C58.86256,75.16288 59.86016,74.47368 60.31816,73.48568 C60.48776,73.12048 60.58776,72.71768 60.58776,72.28968 C60.58776,70.70328 59.29296,69.41648 57.69696,69.41648 C56.10096,69.41648 54.80616,70.70328 54.80616,72.28968 C54.80616,72.70128 54.89656,73.08968 55.05256,73.44248 C55.50056,74.45448 56.51376,75.16288 57.69696,75.16288" id="Fill-15" fill="#0088cc"></path>
                <path d="M3.8788,0 L60.1212,0 C62.2604,0 64,1.7292 64,3.8556 L64,76.1444 C64,78.2708 62.2604,80 60.1212,80 L3.8788,80 C1.7396,80 0,78.2708 0,76.1444 L0,3.8556 C0,1.7292 1.7396,0 3.8788,0 L3.8788,0 Z" id="Stroke-17" stroke="#0088cc" stroke-width="2"></path>
            </g>
        </g>
    </g>
</svg>