<?xml version="1.0" encoding="utf-8"?>
<!-- Generator: Avocode 2.6.0 - http://avocode.com -->
<svg height="24" width="25" xmlns:xlink="http://www.w3.org/1999/xlink" xmlns="http://www.w3.org/2000/svg" viewBox="0 0 25 24">
    <path fill="#e6e7e8" fill-rule="evenodd" d="M 20.76 3.92 C 18.48 1.64 15.49 0.5 12.51 0.5 C 9.52 0.5 6.54 1.64 4.26 3.92 C -0.3 8.48 -0.3 15.86 4.26 20.42 C 6.54 22.7 9.52 23.84 12.51 23.84 C 15.49 23.84 18.48 22.7 20.76 20.42 C 25.31 15.86 25.31 8.48 20.76 3.92 M 19.47 19.13 C 17.61 20.99 15.14 22.01 12.51 22.01 C 9.88 22.01 7.41 20.99 5.55 19.13 C 1.71 15.29 1.71 9.05 5.55 5.21 C 7.41 3.35 9.88 2.33 12.51 2.33 C 15.14 2.33 17.61 3.35 19.47 5.21 C 23.31 9.05 23.31 15.29 19.47 19.13" />
    <path fill="#e6e7e8" fill-rule="evenodd" d="M 10.91 12.73 L 8.51 10.12 L 5.85 12.78 L 10.86 17.79 L 19.33 9.32 L 17.39 7.35 L 10.91 12.73 Z M 10.91 12.73" />
</svg>