<?xml version="1.0" encoding="utf-8"?>
<!-- Generator: Avocode 2.6.0 - http://avocode.com -->
<svg height="18" width="18" xmlns:xlink="http://www.w3.org/1999/xlink" xmlns="http://www.w3.org/2000/svg" viewBox="0 0 18 18">
    <path stroke-linejoin="miter" stroke-linecap="butt" stroke-width="1" stroke="#fcfcfc" fill="none" fill-rule="evenodd" d="M 12.35 12.38 C 11.42 13.31 10.53 14.2 9.57 14.86 C 6.36 17.14 3.22 17.87 1.87 16.52 L 0.63 15.28 C 0.32 14.93 0.78 13.97 1.67 13.08 C 2.56 12.19 3.57 11.72 3.88 12.03 L 5 13.15 L 4.92 13.08 C 5.7 13.85 7.21 13.62 8.83 12.69 C 9.53 12.26 10.23 11.64 10.88 10.99 C 11.54 10.33 12.12 9.71 12.55 9.01 C 13.55 7.35 13.78 5.8 13.01 5.03 L 13.09 5.11 L 11.97 3.98 C 11.66 3.67 12.12 2.67 13.01 1.78 C 13.9 0.89 14.91 0.42 15.22 0.73 L 16.45 1.97 C 17.85 3.29 17.07 6.38 14.83 9.59 C 14.13 10.56 13.28 11.45 12.35 12.38 Z M 12.35 12.38" />
</svg>