<?xml version="1.0" encoding="utf-8"?>
<!-- Generator: Avocode 2.6.0 - http://avocode.com -->
<svg height="24" width="25" xmlns:xlink="http://www.w3.org/1999/xlink" xmlns="http://www.w3.org/2000/svg" viewBox="0 0 25 24">
    <path fill="#0088cc" fill-rule="evenodd" d="M 20.66 3.91 C 18.38 1.64 15.39 0.5 12.41 0.5 C 9.42 0.5 6.44 1.64 4.16 3.91 C -0.4 8.47 -0.4 15.86 4.16 20.41 C 6.44 22.69 9.42 23.83 12.41 23.83 C 15.39 23.83 18.38 22.69 20.66 20.41 C 25.21 15.86 25.21 8.47 20.66 3.91 L 20.66 3.91 Z M 19.37 19.12 C 17.51 20.98 15.04 22.01 12.41 22.01 C 9.78 22.01 7.31 20.98 5.44 19.12 C 1.61 15.29 1.61 9.04 5.44 5.2 C 7.31 3.34 9.78 2.32 12.41 2.32 C 15.04 2.32 17.51 3.34 19.37 5.2 C 23.21 9.04 23.21 15.29 19.37 19.12 L 19.37 19.12 Z M 19.37 19.12" />
    <path fill="#0088cc" fill-rule="evenodd" d="M 10.81 12.73 L 8.4 10.11 L 5.74 12.77 L 10.76 17.78 L 19.23 9.31 L 17.29 7.35 L 10.81 12.73 Z M 10.81 12.73" />
</svg>