<?xml version="1.0" encoding="UTF-8" standalone="no"?>
<svg width="72px" height="82px" viewBox="0 0 72 82" version="1.1" xmlns="http://www.w3.org/2000/svg" xmlns:xlink="http://www.w3.org/1999/xlink">
    <!-- Generator: Sketch 3.8.1 (29687) - http://www.bohemiancoding.com/sketch -->
    <title>Page 1</title>
    <desc>Created with Sketch.</desc>
    <defs></defs>
    <g id="Welcome" stroke="none" stroke-width="1" fill="none" fill-rule="evenodd">
        <g id="Landing-Page-HD" transform="translate(-769.000000, -1002.000000)" stroke="#0088cc" stroke-width="2">
            <g id="Page-1" transform="translate(770.000000, 1003.000000)">
                <path d="M69.4789733,50.272233 C69.4337333,50.4551456 69.3730267,50.6376699 69.29724,50.8205825 C69.23692,50.9728155 69.1611333,51.1250485 69.0857333,51.2772816 C68.9797867,51.4601942 68.87384,51.6582524 68.7377333,51.8407767 C68.6317867,51.9778641 68.52584,52.1149515 68.4048133,52.2671845 C68.23816,52.4652427 68.0568133,52.663301 67.86,52.8613592 C67.7389733,52.9829126 67.6028667,53.1048544 67.46676,53.2267961 C67.2247067,53.44 66.9521067,53.6683495 66.6648133,53.8815534 C66.5437867,53.9728155 66.40768,54.064466 66.2711867,54.1557282 C65.9231867,54.3992233 65.5751867,54.6279612 65.1819467,54.8563107 C65.076,54.9172816 64.9700533,54.9782524 64.8641067,55.038835 C64.41016,55.2978641 63.9411333,55.5417476 63.4419467,55.8003883 C63.38124,55.831068 63.30584,55.8613592 63.2451333,55.8920388 C62.68524,56.1658252 62.0801067,56.4248544 61.4448133,56.6838835 C61.4297333,56.6838835 61.4142667,56.6990291 61.3841067,56.6990291 C57.9497333,58.0850485 53.54676,59.2423301 48.4327067,60.0038835 C48.40216,60.0038835 48.38708,60.0038835 48.35692,60.0190291 C47.35816,60.1712621 46.3447067,60.2932039 45.28524,60.4151456 C45.1189733,60.4302913 44.93724,60.4454369 44.7558933,60.4605825 C43.83292,60.552233 42.9099467,60.6434951 41.9568133,60.7196117 C41.5179467,60.7499029 41.064,60.7654369 40.6251333,60.7957282 C39.9140533,60.8415534 39.2029733,60.8869903 38.4617333,60.9176699 C37.28124,60.9176699 36.0558933,60.9479612 34.8,60.9479612 C33.5441067,60.9479612 32.31876,60.9176699 31.1231867,60.8869903 C30.3819467,60.856699 29.6708667,60.8108738 28.9597867,60.7654369 C28.52092,60.7347573 28.0669733,60.7196117 27.6281067,60.6893204 C26.6749733,60.6128155 25.752,60.536699 24.8290267,60.4302913 C24.66276,60.4151456 24.4810267,60.3996117 24.29968,60.384466 C23.25568,60.2625243 22.22676,60.1409709 21.228,59.9887379 C21.19784,59.9887379 21.18276,59.9887379 21.1522133,59.9732039 C16.02308,59.2120388 11.6351867,58.0543689 8.20081333,56.6687379 C8.18573333,56.6687379 8.17026667,56.6532039 8.14010667,56.6532039 C7.50481333,56.3945631 6.91476,56.135534 6.33978667,55.8613592 C6.27908,55.831068 6.20368,55.8003883 6.14297333,55.7700971 C5.62870667,55.5262136 5.15968,55.2675728 4.72081333,55.0085437 C4.61486667,54.9475728 4.50892,54.8866019 4.40297333,54.8256311 C4.00973333,54.5972816 3.66173333,54.3537864 3.31373333,54.1254369 C3.17724,54.0337864 3.04113333,53.9425243 2.92010667,53.8512621 C2.63281333,53.6380583 2.37568,53.4248544 2.11816,53.1961165 C1.98205333,53.0745631 1.84594667,52.9526214 1.72492,52.8306796 C1.52810667,52.6326214 1.34676,52.4349515 1.18010667,52.2368932 C1.05908,52.0998058 0.953133333,51.9627184 0.847186667,51.8104854 C0.71108,51.6275728 0.605133333,51.4295146 0.499186667,51.2469903 C0.423786667,51.0947573 0.348,50.9421359 0.28768,50.7899029 C0.211893333,50.6073786 0.151186667,50.424466 0.105946667,50.2419417 C0.0607066667,50.0132039 0,49.7697087 0,49.5258252 C0,49.3584466 0.01508,49.175534 0.04524,49.0081553 C0.0757866667,48.7949515 0.0607066667,48.5817476 0,48.3685437 L0,37.0225243 C0.04524,37.0683495 0.0908666667,37.0986408 0.136106667,37.144466 C0.469026667,37.4337864 0.801946667,37.7231068 1.18010667,38.0124272 C6.88421333,42.3530097 18.2777333,45.7184466 34.8,45.7184466 C51.2468667,45.7184466 62.62492,42.3681553 68.3441067,38.0582524 C68.7980533,37.7231068 69.20676,37.3728155 69.6,37.0225243 L69.6,48.3227184 C69.53968,48.5359223 69.5091333,48.7646602 69.55476,48.9930097 C69.58492,49.175534 69.6,49.3584466 69.6,49.5258252 C69.6,49.7697087 69.53968,50.0132039 69.4789733,50.272233 L69.4789733,50.272233 Z" id="Stroke-1"></path>
                <path d="M69.6,17.9706796 L69.6,29.2708738 C69.5392933,29.4840777 69.5091333,29.7124272 69.55476,29.941165 C69.58492,30.1236893 69.6,30.3066019 69.6,30.4739806 C69.6,30.7178641 69.5392933,30.9613592 69.4789733,31.2203883 C69.4337333,31.4029126 69.3730267,31.5858252 69.29724,31.7683495 C69.23692,31.9209709 69.1611333,32.0732039 69.0857333,32.2254369 C68.9797867,32.4079612 68.87384,32.6060194 68.7377333,32.788932 C68.6317867,32.9260194 68.52584,33.0631068 68.4048133,33.2153398 C68.23816,33.4133981 68.0568133,33.6114563 67.86,33.8091262 C67.7389733,33.931068 67.6028667,34.0530097 67.46676,34.1745631 C67.2247067,34.3881553 66.9521067,34.6165049 66.6648133,34.8297087 C66.5437867,34.9209709 66.4072933,35.012233 66.2711867,35.1038835 C65.9231867,35.3473786 65.5751867,35.5757282 65.1819467,35.804466 C65.076,35.8650485 64.9700533,35.9260194 64.8641067,35.9869903 C64.41016,36.2460194 63.9411333,36.4895146 63.4419467,36.7485437 C63.38124,36.778835 63.30584,36.8095146 63.2451333,36.8398058 C62.68524,37.1139806 62.0801067,37.3730097 61.4448133,37.6316505 C61.4297333,37.6316505 61.4142667,37.6471845 61.3841067,37.6471845 C57.9497333,39.0328155 53.54676,40.1904854 48.4327067,40.9516505 C48.40216,40.9516505 48.38708,40.9516505 48.35692,40.9671845 C47.35816,41.1194175 46.3447067,41.2413592 45.28524,41.3629126 C45.1189733,41.3784466 44.93724,41.3935922 44.7558933,41.4087379 C43.83292,41.5 42.9099467,41.5916505 41.9568133,41.667767 C41.5179467,41.6980583 41.064,41.7132039 40.6251333,41.7438835 C39.9140533,41.7893204 39.2029733,41.8351456 38.4617333,41.8654369 C37.28124,41.8654369 36.0558933,41.8961165 34.8,41.8961165 C33.5441067,41.8961165 32.31876,41.8654369 31.1231867,41.8351456 C30.3819467,41.8048544 29.6708667,41.7590291 28.9597867,41.7132039 C28.52092,41.6829126 28.0669733,41.667767 27.6281067,41.6370874 C26.6749733,41.5609709 25.752,41.4848544 24.8290267,41.3784466 C24.66276,41.3629126 24.4810267,41.347767 24.2992933,41.3326214 C23.2552933,41.2106796 22.22676,41.0887379 21.228,40.9365049 C21.19784,40.9365049 21.18276,40.9365049 21.1522133,40.9213592 C16.02308,40.1598058 11.6351867,39.0025243 8.20081333,37.6165049 C8.18573333,37.6165049 8.17026667,37.6013592 8.14010667,37.6013592 C7.50481333,37.3423301 6.91476,37.0836893 6.33978667,36.8095146 C6.27908,36.778835 6.20329333,36.7485437 6.14297333,36.7182524 C5.62870667,36.4743689 5.15929333,36.2153398 4.72081333,35.956699 C4.61486667,35.8957282 4.50892,35.8347573 4.40297333,35.7737864 C4.00973333,35.5454369 3.66173333,35.3015534 3.31373333,35.0732039 C3.17724,34.9819417 3.04113333,34.8906796 2.92010667,34.7990291 C2.63281333,34.5858252 2.37529333,34.3726214 2.11816,34.1442718 C1.98205333,34.0223301 1.84594667,33.9007767 1.72492,33.778835 C1.52810667,33.5807767 1.34676,33.3827184 1.18010667,33.1846602 C1.05908,33.0479612 0.953133333,32.9108738 0.847186667,32.7582524 C0.71108,32.5757282 0.605133333,32.3776699 0.499186667,32.1947573 C0.423786667,32.0425243 0.348,31.8902913 0.287293333,31.7380583 C0.211893333,31.5551456 0.151186667,31.3726214 0.105946667,31.1897087 C0.0607066667,30.9613592 0,30.7178641 0,30.4739806 C0,30.3066019 0.01508,30.1236893 0.04524,29.9563107 C0.0757866667,29.7431068 0.0607066667,29.5299029 0,29.316699 L0,17.9706796 C0.181733333,18.1380583 0.39324,18.3058252 0.590053333,18.4580583 C0.696,18.5493204 0.801946667,18.6405825 0.907893333,18.732233 C1.36184,19.0976699 1.84594667,19.4479612 2.39076,19.7982524 C2.49670667,19.8743689 2.63281333,19.9353398 2.73876,20.0114563 C3.17724,20.2856311 3.64626667,20.5598058 4.14584,20.8339806 C4.32718667,20.9252427 4.50892,21.0316505 4.70573333,21.123301 C5.26524,21.4126214 5.84021333,21.6867961 6.44573333,21.9454369 C6.55129333,21.9912621 6.64216,22.0370874 6.73302667,22.0825243 C7.44410667,22.3873786 8.20081333,22.676699 8.98729333,22.9508738 C9.19918667,23.0269903 9.42616,23.1031068 9.65313333,23.1792233 C10.2737333,23.3924272 10.9241067,23.5904854 11.5899467,23.7881553 C11.832,23.8642718 12.0589733,23.9252427 12.3161067,24.0013592 C13.19384,24.2452427 14.1168133,24.4887379 15.0699467,24.7019417 C15.2060533,24.7326214 15.34216,24.7629126 15.4782667,24.7935922 C16.32584,24.9761165 17.2031867,25.1438835 18.11108,25.3112621 C18.41384,25.372233 18.7312933,25.4176699 19.0340533,25.4634951 C19.8967067,25.6005825 20.7740533,25.7376699 21.6819467,25.8596117 C21.90892,25.8899029 22.1358933,25.9205825 22.3779467,25.9508738 C23.4977333,26.0879612 24.66276,26.2099029 25.8579467,26.301165 C26.1607067,26.3314563 26.46308,26.3469903 26.76584,26.3621359 C27.7189733,26.4382524 28.7022667,26.4840777 29.7010267,26.5295146 C30.0641067,26.5446602 30.4271867,26.5601942 30.8057333,26.5753398 C32.0917867,26.6363107 33.42308,26.6666019 34.8,26.6666019 C36.17692,26.6666019 37.5082133,26.6363107 38.8097333,26.5904854 C39.1878933,26.5753398 39.5509733,26.5601942 39.9140533,26.5446602 C40.9128133,26.4992233 41.8961067,26.4382524 42.84924,26.3772816 C43.152,26.3621359 43.45476,26.3314563 43.7571333,26.3163107 C44.9527067,26.2099029 46.1177333,26.1031068 47.2371333,25.9660194 C47.4791867,25.9357282 47.69108,25.9050485 47.9331333,25.8747573 C48.8410267,25.7528155 49.71876,25.6308738 50.5810267,25.4786408 C50.8988667,25.4332039 51.20124,25.372233 51.504,25.3264078 C52.4118933,25.1590291 53.28924,24.9912621 54.1368133,24.8087379 C54.27292,24.7780583 54.4090267,24.747767 54.5451333,24.7174757 C55.4982667,24.5042718 56.42124,24.2603883 57.2989733,24.0168932 C57.5410267,23.9559223 57.78308,23.8798058 58.0251333,23.8036893 C58.6909733,23.6056311 59.3417333,23.4075728 59.9619467,23.1943689 C60.18892,23.1182524 60.4158933,23.0421359 60.6277867,22.9660194 C61.4142667,22.6918447 62.1709733,22.4025243 62.8820533,22.0976699 C62.988,22.052233 63.0788667,22.0064078 63.1697333,21.9609709 C63.7748667,21.6867961 64.36492,21.4126214 64.9097333,21.1384466 C65.10616,21.0471845 65.2878933,20.9403883 65.46924,20.8491262 C65.9688133,20.5749515 66.43784,20.3159223 66.8767067,20.0266019 C66.9977333,19.9504854 67.11876,19.8895146 67.2247067,19.8133981 C67.7540533,19.4631068 68.23816,19.1128155 68.7071867,18.7473786 C68.8282133,18.6561165 68.91908,18.564466 69.0250267,18.4732039 C69.20676,18.3058252 69.4182667,18.1380583 69.6,17.9706796 L69.6,17.9706796 Z" id="Stroke-3"></path>
                <path d="M34.8,0 C55.30184,0 69.6,6.01553398 69.6,11.4221359 C69.6,16.8283495 55.30184,22.8442718 34.8,22.8442718 C14.29816,22.8442718 0,16.8283495 0,11.4221359 C0,6.01553398 14.29816,0 34.8,0 L34.8,0 Z" id="Stroke-5"></path>
                <path d="M69.6,68.8825631 C69.58492,68.943534 69.56984,69.0196505 69.55476,69.0806214 C68.6921067,74.3652816 54.5300533,79.9998447 34.8,79.9998447 C15.0699467,79.9998447 0.907893333,74.3652816 0.04524,69.095767 C0.03016,69.0196505 0.01508,68.9586796 0,68.8977087 L0,56.0899417 C0.04524,56.1353786 0.0908666667,56.1660583 0.136106667,56.2118835 C0.469026667,56.5012039 0.801946667,56.7905243 1.18010667,57.0798447 C6.88421333,61.4048932 18.2777333,64.7707184 34.8,64.7707184 C51.2468667,64.7707184 62.62492,61.4200388 68.3441067,57.1101359 C68.7980533,56.7753786 69.20676,56.4250874 69.6,56.0747961 L69.6,68.8825631 L69.6,68.8825631 Z" id="Stroke-7"></path>
            </g>
        </g>
    </g>
</svg>