<?xml version="1.0" encoding="utf-8"?>
<!-- Generator: Avocode 2.6.0 - http://avocode.com -->
<svg height="82" width="72" xmlns:xlink="http://www.w3.org/1999/xlink" xmlns="http://www.w3.org/2000/svg" viewBox="0 0 72 82">
    <path stroke-linejoin="miter" stroke-linecap="butt" stroke-width="2" stroke="#000000" fill="none" fill-rule="evenodd" d="M 70.48 51.27 C 70.43 51.46 70.37 51.64 70.3 51.82 C 70.24 51.97 70.16 52.13 70.09 52.28 C 69.98 52.46 69.87 52.66 69.74 52.84 C 69.63 52.98 69.53 53.11 69.4 53.27 C 69.24 53.47 69.06 53.66 68.86 53.86 C 68.74 53.98 68.6 54.1 68.47 54.23 C 68.22 54.44 67.95 54.67 67.66 54.88 C 67.54 54.97 67.41 55.06 67.27 55.16 C 66.92 55.4 66.58 55.63 66.18 55.86 C 66.08 55.92 65.97 55.98 65.86 56.04 C 65.41 56.3 64.94 56.54 64.44 56.8 C 64.38 56.83 64.31 56.86 64.25 56.89 C 63.69 57.17 63.08 57.42 62.44 57.68 C 62.43 57.68 62.41 57.7 62.38 57.7 C 58.95 59.09 54.55 60.24 49.43 61 C 49.4 61 49.39 61 49.36 61.02 C 48.36 61.17 47.34 61.29 46.29 61.42 C 46.12 61.43 45.94 61.45 45.76 61.46 C 44.83 61.55 43.91 61.64 42.96 61.72 C 42.52 61.75 42.06 61.77 41.63 61.8 C 40.91 61.84 40.2 61.89 39.46 61.92 C 38.28 61.92 37.06 61.95 35.8 61.95 C 34.54 61.95 33.32 61.92 32.12 61.89 C 31.38 61.86 30.67 61.81 29.96 61.77 C 29.52 61.73 29.07 61.72 28.63 61.69 C 27.67 61.61 26.75 61.54 25.83 61.43 C 25.66 61.42 25.48 61.4 25.3 61.38 C 24.26 61.26 23.23 61.14 22.23 60.99 C 22.2 60.99 22.18 60.99 22.15 60.97 C 17.02 60.21 12.64 59.05 9.2 57.67 C 9.19 57.67 9.17 57.65 9.14 57.65 C 8.5 57.39 7.91 57.14 7.34 56.86 C 7.28 56.83 7.2 56.8 7.14 56.77 C 6.63 56.53 6.16 56.27 5.72 56.01 C 5.61 55.95 5.51 55.89 5.4 55.83 C 5.01 55.6 4.66 55.35 4.31 55.13 C 4.18 55.03 4.04 54.94 3.92 54.85 C 3.63 54.64 3.38 54.42 3.12 54.2 C 2.98 54.07 2.85 53.95 2.72 53.83 C 2.53 53.63 2.35 53.43 2.18 53.24 C 2.06 53.1 1.95 52.96 1.85 52.81 C 1.71 52.63 1.61 52.43 1.5 52.25 C 1.42 52.09 1.35 51.94 1.29 51.79 C 1.21 51.61 1.15 51.42 1.11 51.24 C 1.06 51.01 1 50.77 1 50.53 C 1 50.36 1.02 50.18 1.05 50.01 C 1.08 49.79 1.06 49.58 1 49.37 L 1 38.02 C 1.05 38.07 1.09 38.1 1.14 38.14 C 1.47 38.43 1.8 38.72 2.18 39.01 C 7.88 43.35 19.28 46.72 35.8 46.72 C 52.25 46.72 63.62 43.37 69.34 39.06 C 69.8 38.72 70.21 38.37 70.6 38.02 L 70.6 49.32 C 70.54 49.54 70.51 49.76 70.55 49.99 C 70.58 50.18 70.6 50.36 70.6 50.53 C 70.6 50.77 70.54 51.01 70.48 51.27 L 70.48 51.27 Z M 70.48 51.27" />
    <path stroke-linejoin="miter" stroke-linecap="butt" stroke-width="2" stroke="#000000" fill="none" fill-rule="evenodd" d="M 70.6 18.97 L 70.6 30.27 C 70.54 30.48 70.51 30.71 70.55 30.94 C 70.58 31.12 70.6 31.31 70.6 31.47 C 70.6 31.72 70.54 31.96 70.48 32.22 C 70.43 32.4 70.37 32.59 70.3 32.77 C 70.24 32.92 70.16 33.07 70.09 33.23 C 69.98 33.41 69.87 33.61 69.74 33.79 C 69.63 33.93 69.53 34.06 69.4 34.22 C 69.24 34.41 69.06 34.61 68.86 34.81 C 68.74 34.93 68.6 35.05 68.47 35.17 C 68.22 35.39 67.95 35.62 67.66 35.83 C 67.54 35.92 67.41 36.01 67.27 36.1 C 66.92 36.35 66.58 36.58 66.18 36.8 C 66.08 36.87 65.97 36.93 65.86 36.99 C 65.41 37.25 64.94 37.49 64.44 37.75 C 64.38 37.78 64.31 37.81 64.25 37.84 C 63.69 38.11 63.08 38.37 62.44 38.63 C 62.43 38.63 62.41 38.65 62.38 38.65 C 58.95 40.03 54.55 41.19 49.43 41.95 C 49.4 41.95 49.39 41.95 49.36 41.97 C 48.36 42.12 47.34 42.24 46.29 42.36 C 46.12 42.38 45.94 42.39 45.76 42.41 C 44.83 42.5 43.91 42.59 42.96 42.67 C 42.52 42.7 42.06 42.71 41.63 42.74 C 40.91 42.79 40.2 42.84 39.46 42.87 C 38.28 42.87 37.06 42.9 35.8 42.9 C 34.54 42.9 33.32 42.87 32.12 42.84 C 31.38 42.8 30.67 42.76 29.96 42.71 C 29.52 42.68 29.07 42.67 28.63 42.64 C 27.67 42.56 26.75 42.48 25.83 42.38 C 25.66 42.36 25.48 42.35 25.3 42.33 C 24.26 42.21 23.23 42.09 22.23 41.94 C 22.2 41.94 22.18 41.94 22.15 41.92 C 17.02 41.16 12.64 40 9.2 38.62 C 9.19 38.62 9.17 38.6 9.14 38.6 C 8.5 38.34 7.91 38.08 7.34 37.81 C 7.28 37.78 7.2 37.75 7.14 37.72 C 6.63 37.47 6.16 37.22 5.72 36.96 C 5.61 36.9 5.51 36.83 5.4 36.77 C 5.01 36.55 4.66 36.3 4.31 36.07 C 4.18 35.98 4.04 35.89 3.92 35.8 C 3.63 35.59 3.38 35.37 3.12 35.14 C 2.98 35.02 2.85 34.9 2.72 34.78 C 2.53 34.58 2.35 34.38 2.18 34.18 C 2.06 34.05 1.95 33.91 1.85 33.76 C 1.71 33.58 1.61 33.38 1.5 33.19 C 1.42 33.04 1.35 32.89 1.29 32.74 C 1.21 32.56 1.15 32.37 1.11 32.19 C 1.06 31.96 1 31.72 1 31.47 C 1 31.31 1.02 31.12 1.05 30.96 C 1.08 30.74 1.06 30.53 1 30.32 L 1 18.97 C 1.18 19.14 1.39 19.31 1.59 19.46 C 1.7 19.55 1.8 19.64 1.91 19.73 C 2.36 20.1 2.85 20.45 3.39 20.8 C 3.5 20.87 3.63 20.94 3.74 21.01 C 4.18 21.29 4.65 21.56 5.15 21.83 C 5.33 21.93 5.51 22.03 5.71 22.12 C 6.27 22.41 6.84 22.69 7.45 22.95 C 7.55 22.99 7.64 23.04 7.73 23.08 C 8.44 23.39 9.2 23.68 9.99 23.95 C 10.2 24.03 10.43 24.1 10.65 24.18 C 11.27 24.39 11.92 24.59 12.59 24.79 C 12.83 24.86 13.06 24.93 13.32 25 C 14.19 25.25 15.12 25.49 16.07 25.7 C 16.21 25.73 16.34 25.76 16.48 25.79 C 17.33 25.98 18.2 26.14 19.11 26.31 C 19.41 26.37 19.73 26.42 20.03 26.46 C 20.9 26.6 21.77 26.74 22.68 26.86 C 22.91 26.89 23.14 26.92 23.38 26.95 C 24.5 27.09 25.66 27.21 26.86 27.3 C 27.16 27.33 27.46 27.35 27.77 27.36 C 28.72 27.44 29.7 27.48 30.7 27.53 C 31.06 27.54 31.43 27.56 31.81 27.58 C 33.09 27.64 34.42 27.67 35.8 27.67 C 37.18 27.67 38.51 27.64 39.81 27.59 C 40.19 27.58 40.55 27.56 40.91 27.54 C 41.91 27.5 42.9 27.44 43.85 27.38 C 44.15 27.36 44.45 27.33 44.76 27.32 C 45.95 27.21 47.12 27.1 48.24 26.97 C 48.48 26.94 48.69 26.91 48.93 26.87 C 49.84 26.75 50.72 26.63 51.58 26.48 C 51.9 26.43 52.2 26.37 52.5 26.33 C 53.41 26.16 54.29 25.99 55.14 25.81 C 55.27 25.78 55.41 25.75 55.55 25.72 C 56.5 25.5 57.42 25.26 58.3 25.02 C 58.54 24.96 58.78 24.88 59.03 24.8 C 59.69 24.61 60.34 24.41 60.96 24.19 C 61.19 24.12 61.42 24.04 61.63 23.97 C 62.41 23.69 63.17 23.4 63.88 23.1 C 63.99 23.05 64.08 23.01 64.17 22.96 C 64.77 22.69 65.36 22.41 65.91 22.14 C 66.11 22.05 66.29 21.94 66.47 21.85 C 66.97 21.57 67.44 21.32 67.88 21.03 C 68 20.95 68.12 20.89 68.22 20.81 C 68.75 20.46 69.24 20.11 69.71 19.75 C 69.83 19.66 69.92 19.56 70.03 19.47 C 70.21 19.31 70.42 19.14 70.6 18.97 L 70.6 18.97 Z M 70.6 18.97" />
    <path stroke-linejoin="miter" stroke-linecap="butt" stroke-width="2" stroke="#000000" fill="none" fill-rule="evenodd" d="M 35.8 1 C 56.3 1 70.6 7.02 70.6 12.42 C 70.6 17.83 56.3 23.84 35.8 23.84 C 15.3 23.84 1 17.83 1 12.42 C 1 7.02 15.3 1 35.8 1 L 35.8 1 Z M 35.8 1" />
    <path stroke-linejoin="miter" stroke-linecap="butt" stroke-width="2" stroke="#000000" fill="none" fill-rule="evenodd" d="M 70.6 69.88 C 70.58 69.94 70.57 70.02 70.55 70.08 C 69.69 75.37 55.53 81 35.8 81 C 16.07 81 1.91 75.37 1.05 70.1 C 1.03 70.02 1.02 69.96 1 69.9 L 1 57.09 C 1.05 57.14 1.09 57.17 1.14 57.21 C 1.47 57.5 1.8 57.79 2.18 58.08 C 7.88 62.4 19.28 65.77 35.8 65.77 C 52.25 65.77 63.62 62.42 69.34 58.11 C 69.8 57.78 70.21 57.43 70.6 57.07 L 70.6 69.88 L 70.6 69.88 Z M 70.6 69.88" />
</svg>