<?xml version="1.0" encoding="utf-8"?>
<!-- Generator: Avocode 2.6.0 - http://avocode.com -->
<svg height="80" width="65" xmlns:xlink="http://www.w3.org/1999/xlink" xmlns="http://www.w3.org/2000/svg" viewBox="0 0 65 80">
    <path fill="#0088cc" fill-rule="evenodd" d="M 6.64 10.88 C 8.22 10.88 9.5 9.6 9.5 8.03 C 9.5 7.55 9.37 7.1 9.16 6.71 C 8.67 5.81 7.73 5.19 6.64 5.19 C 5.52 5.19 4.57 5.82 4.1 6.75 C 3.9 7.13 3.77 7.57 3.77 8.03 C 3.77 9.6 5.06 10.88 6.64 10.88 L 6.64 10.88 Z M 6.64 10.88" />
    <path fill="#0088cc" fill-rule="evenodd" d="M 6.64 74.81 C 7.79 74.81 8.78 74.13 9.23 73.15 C 9.4 72.79 9.5 72.39 9.5 71.97 C 9.5 70.4 8.22 69.13 6.64 69.13 C 5.06 69.13 3.77 70.4 3.77 71.97 C 3.77 72.38 3.86 72.76 4.02 73.11 C 4.46 74.11 5.47 74.81 6.64 74.81" />
    <path fill="#0088cc" fill-rule="evenodd" d="M 57.52 10.88 C 59.1 10.88 60.38 9.6 60.38 8.03 C 60.38 7.55 60.25 7.1 60.04 6.71 C 59.56 5.81 58.62 5.19 57.52 5.19 C 56.41 5.19 55.45 5.82 54.98 6.75 C 54.78 7.13 54.66 7.57 54.66 8.03 C 54.66 9.6 55.94 10.88 57.52 10.88" />
    <path fill="#0088cc" fill-rule="evenodd" d="M 57.52 74.81 C 58.68 74.81 59.66 74.13 60.12 73.15 C 60.28 72.79 60.38 72.39 60.38 71.97 C 60.38 70.4 59.1 69.13 57.52 69.13 C 55.94 69.13 54.66 70.4 54.66 71.97 C 54.66 72.38 54.75 72.76 54.9 73.11 C 55.35 74.11 56.35 74.81 57.52 74.81" />
    <path fill="#0088cc" fill-rule="evenodd" d="M 25.36 57.18 L 28.24 57.18 L 28.24 49.54 L 25.36 49.54 L 25.36 57.18 Z M 25.36 57.18" />
    <path fill="#0088cc" fill-rule="evenodd" d="M 31.12 57.18 L 34 57.18 L 34 49.54 L 31.12 49.54 L 31.12 57.18 Z M 31.12 57.18" />
    <path fill="#0088cc" fill-rule="evenodd" d="M 36.88 57.18 L 39.76 57.18 L 39.76 49.54 L 36.88 49.54 L 36.88 57.18 Z M 36.88 57.18" />
    <path fill="#0088cc" fill-rule="evenodd" d="M 25.36 29.5 L 28.24 29.5 L 28.24 22.82 L 25.36 22.82 L 25.36 29.5 Z M 25.36 29.5" />
    <path fill="#0088cc" fill-rule="evenodd" d="M 31.12 29.5 L 34 29.5 L 34 22.82 L 31.12 22.82 L 31.12 29.5 Z M 31.12 29.5" />
    <path fill="#0088cc" fill-rule="evenodd" d="M 36.88 29.5 L 39.76 29.5 L 39.76 22.82 L 36.88 22.82 L 36.88 29.5 Z M 36.88 29.5" />
    <path fill="#0088cc" fill-rule="evenodd" d="M 42.64 35.23 L 49.36 35.23 L 49.36 32.37 L 42.64 32.37 L 42.64 35.23 Z M 42.64 35.23" />
    <path fill="#0088cc" fill-rule="evenodd" d="M 42.64 40.95 L 49.36 40.95 L 49.36 38.09 L 42.64 38.09 L 42.64 40.95 Z M 42.64 40.95" />
    <path fill="#0088cc" fill-rule="evenodd" d="M 42.64 46.68 L 49.36 46.68 L 49.36 43.82 L 42.64 43.82 L 42.64 46.68 Z M 42.64 46.68" />
    <path fill="#0088cc" fill-rule="evenodd" d="M 14.8 35.23 L 22.48 35.23 L 22.48 32.37 L 14.8 32.37 L 14.8 35.23 Z M 14.8 35.23" />
    <path fill="#0088cc" fill-rule="evenodd" d="M 14.8 40.95 L 22.48 40.95 L 22.48 38.09 L 14.8 38.09 L 14.8 40.95 Z M 14.8 40.95" />
    <path fill="#0088cc" fill-rule="evenodd" d="M 14.8 46.68 L 22.48 46.68 L 22.48 43.82 L 14.8 43.82 L 14.8 46.68 Z M 14.8 46.68" />
    <path stroke-linejoin="miter" stroke-linecap="butt" stroke-width="2" stroke="#0088cc" fill="none" fill-rule="evenodd" d="M 25.36 46.68 L 39.76 46.68 L 39.76 32.37 L 25.36 32.37 L 25.36 46.68 Z M 25.36 46.68" />
    <path stroke-linejoin="miter" stroke-linecap="butt" stroke-width="2" stroke="#0088cc" fill="none" fill-rule="evenodd" d="M 4.24 0.4 L 59.92 0.4 C 62.04 0.4 63.76 2.11 63.76 4.21 L 63.76 75.79 C 63.76 77.89 62.04 79.6 59.92 79.6 L 4.24 79.6 C 2.12 79.6 0.4 77.89 0.4 75.79 L 0.4 4.21 C 0.4 2.11 2.12 0.4 4.24 0.4 L 4.24 0.4 Z M 4.24 0.4" />
</svg>